<svg xmlns="http://www.w3.org/2000/svg" width="805" height="600"><rect width="805" height="600" x="0" y="0" fill="#FFFFFF" id="backgorund"/><g transform="translate(10,10)" id="visualization"><g><rect x="390" y="0" height="1.1446886446886992" width="5" fill="black"><title>Remote explosive/landmine/IED: 25</title></rect><rect x="390" y="6.144688644688699" height="4.258241758241752" width="5" fill="black"><title>Sexual violence: 93</title></rect><rect x="0" y="0" height="19.276556776556788" width="5" fill="black"><title>Amhara Ethnic Militia (Ethiopia): 421</title></rect><rect x="0" y="24.276556776556788" height="20.60439560439562" width="5" fill="black"><title>Unidentified Armed Group (Ethiopia): 450</title></rect><rect x="0" y="49.88095238095241" height="21.108058608058627" width="5" fill="black"><title>Police Forces of Ethiopia (2018-) Oromo Regional Special Forces: 461</title></rect><rect x="390" y="15.402930402930451" height="27.335164835164846" width="5" fill="black"><title>Shelling/artillery/missile attack: 597</title></rect><rect x="390" y="47.7380952380953" height="27.655677655677664" width="5" fill="black"><title>Government regains territory: 604</title></rect><rect x="390" y="80.39377289377296" height="28.34249084249086" width="5" fill="black"><title>Air/drone strike: 619</title></rect><rect x="0" y="75.98901098901104" height="52.6098901098901" width="5" fill="black"><title>Military Forces of Eritrea (1993-): 1149</title></rect><rect x="780" y="7.5" height="79.53296703296706" width="5" fill="black"><title>TPLF: Tigray People's Liberation Front: 1737</title></rect><rect x="780" y="92.03296703296706" height="84.84432234432234" width="5" fill="black"><title>OLF: Oromo Liberation Front (Shane Splinter Faction): 1853</title></rect><rect x="0" y="133.59890109890114" height="120.14652014652012" width="5" fill="black"><title>TPLF: Tigray People's Liberation Front: 2624</title></rect><rect x="0" y="258.74542124542126" height="129.99084249084245" width="5" fill="black"><title>OLF: Oromo Liberation Front (Shane Splinter Faction): 2839</title></rect><rect x="780" y="181.8772893772894" height="136.3095238095238" width="5" fill="black"><title>Military Forces of Ethiopia (2018-): 2977</title></rect><rect x="0" y="393.7362637362637" height="186.2637362637363" width="5" fill="black"><title>Military Forces of Ethiopia (2018-): 4068</title></rect><rect x="390" y="113.73626373626382" height="207.1428571428571" width="5" fill="black"><title>Attack: 4524</title></rect><rect x="780" y="323.1868131868132" height="249.3131868131868" width="5" fill="black"><title>Civilians (Ethiopia): 5445</title></rect><rect x="390" y="325.87912087912093" height="254.12087912087907" width="5" fill="black"><title>Armed clash: 5550</title></rect></g><g fill="none" stroke-opacity="1"><g style="mix-blend-mode: multiply;"><path d="M5,357.1199633699634C197.5,357.1199633699634,197.5,451.86355311355317,390,451.86355311355317" stroke="rgb(246, 130, 79)" stroke-width="63.23260073260073"/><title>OLF: Oromo Liberation Front (Shane Splinter Faction) → Armed clash: 1381</title></g><g style="mix-blend-mode: multiply;"><path d="M5,439.271978021978C197.5,439.271978021978,197.5,94.56501831501838,390,94.56501831501838" stroke="rgb(229, 88, 73)" stroke-width="28.34249084249084"/><title>Military Forces of Ethiopia (2018-) → Air/drone strike: 619</title></g><g style="mix-blend-mode: multiply;"><path d="M5,33.342490842490854C197.5,33.342490842490854,197.5,140.06410256410263,390,140.06410256410263" stroke="rgb(254, 241, 168)" stroke-width="15.384615384615383"/><title>Unidentified Armed Group (Ethiopia) → Attack: 336</title></g><g style="mix-blend-mode: multiply;"><path d="M5,53.68131868131871C197.5,53.68131868131871,197.5,151.51098901098908,390,151.51098901098908" stroke="rgb(252, 176, 102)" stroke-width="7.509157509157508"/><title>Police Forces of Ethiopia (2018-) Oromo Regional Special Forces → Attack: 164</title></g><g style="mix-blend-mode: multiply;"><path d="M5,169.15293040293042C197.5,169.15293040293042,197.5,208.95146520146528,390,208.95146520146528" stroke="rgb(254, 214, 134)" stroke-width="30.265567765567763"/><title>TPLF: Tigray People's Liberation Front → Attack: 661</title></g><g style="mix-blend-mode: multiply;"><path d="M5,411.2728937728937C197.5,411.2728937728937,197.5,61.56593406593412,390,61.56593406593412" stroke="rgb(229, 88, 73)" stroke-width="27.655677655677653"/><title>Military Forces of Ethiopia (2018-) → Government regains territory: 604</title></g><g style="mix-blend-mode: multiply;"><path d="M5,468.46153846153845C197.5,468.46153846153845,197.5,305.86080586080595,390,305.86080586080595" stroke="rgb(229, 88, 73)" stroke-width="30.036630036630033"/><title>Military Forces of Ethiopia (2018-) → Attack: 656</title></g><g style="mix-blend-mode: multiply;"><path d="M5,9.317765567765568C197.5,9.317765567765568,197.5,123.05402930402938,390,123.05402930402938" stroke="rgb(158, 1, 66)" stroke-width="18.635531135531135"/><title>Amhara Ethnic Militia (Ethiopia) → Attack: 407</title></g><g style="mix-blend-mode: multiply;"><path d="M5,531.7399267399267C197.5,531.7399267399267,197.5,531.7399267399268,390,531.7399267399268" stroke="rgb(229, 88, 73)" stroke-width="96.52014652014651"/><title>Military Forces of Ethiopia (2018-) → Armed clash: 2108</title></g><g style="mix-blend-mode: multiply;"><path d="M5,133.85073260073264C197.5,133.85073260073264,197.5,0.8928571428571428,390,0.8928571428571428" stroke="rgb(254, 214, 134)" stroke-width="1"/><title>TPLF: Tigray People's Liberation Front → Remote explosive/landmine/IED: 11</title></g><g style="mix-blend-mode: multiply;"><path d="M5,125.1648351648352C197.5,125.1648351648352,197.5,347.35347985347994,390,347.35347985347994" stroke="rgb(198, 47, 74)" stroke-width="6.868131868131868"/><title>Military Forces of Eritrea (1993-) → Armed clash: 150</title></g><g style="mix-blend-mode: multiply;"><path d="M5,64.21245421245425C197.5,64.21245421245425,197.5,337.1428571428572,390,337.1428571428572" stroke="rgb(252, 176, 102)" stroke-width="13.553113553113553"/><title>Police Forces of Ethiopia (2018-) Oromo Regional Special Forces → Armed clash: 296</title></g><g style="mix-blend-mode: multiply;"><path d="M5,292.12454212454213C197.5,292.12454212454213,197.5,257.46336996337004,390,257.46336996337004" stroke="rgb(246, 130, 79)" stroke-width="66.75824175824175"/><title>OLF: Oromo Liberation Front (Shane Splinter Faction) → Attack: 1458</title></g><g style="mix-blend-mode: multiply;"><path d="M5,219.01556776556777C197.5,219.01556776556777,197.5,385.51739926739936,390,385.51739926739936" stroke="rgb(254, 214, 134)" stroke-width="69.45970695970695"/><title>TPLF: Tigray People's Liberation Front → Armed clash: 1517</title></g><g style="mix-blend-mode: multiply;"><path d="M5,146.14468864468867C197.5,146.14468864468867,197.5,31.153846153846203,390,31.153846153846203" stroke="rgb(254, 214, 134)" stroke-width="15.75091575091575"/><title>TPLF: Tigray People's Liberation Front → Shelling/artillery/missile attack: 344</title></g><g style="mix-blend-mode: multiply;"><path d="M5,154.02014652014654C197.5,154.02014652014654,197.5,47.7380952380953,390,47.7380952380953" stroke="rgb(254, 214, 134)" stroke-width="1"/><title>TPLF: Tigray People's Liberation Front → Government regains territory: 0</title></g><g style="mix-blend-mode: multiply;"><path d="M5,136.1858974358975C197.5,136.1858974358975,197.5,8.319597069597123,390,8.319597069597123" stroke="rgb(254, 214, 134)" stroke-width="4.166666666666666"/><title>TPLF: Tigray People's Liberation Front → Sexual violence: 91</title></g><g style="mix-blend-mode: multiply;"><path d="M5,102.4542124542125C197.5,102.4542124542125,197.5,174.5421245421246,390,174.5421245421246" stroke="rgb(198, 47, 74)" stroke-width="38.55311355311355"/><title>Military Forces of Eritrea (1993-) → Attack: 842</title></g><g style="mix-blend-mode: multiply;"><path d="M5,79.60622710622715C197.5,79.60622710622715,197.5,19.706959706959758,390,19.706959706959758" stroke="rgb(198, 47, 74)" stroke-width="7.142857142857142"/><title>Military Forces of Eritrea (1993-) → Shelling/artillery/missile attack: 156</title></g><g style="mix-blend-mode: multiply;"><path d="M5,49.90384615384618C197.5,49.90384615384618,197.5,6.167582417582472,390,6.167582417582472" stroke="rgb(252, 176, 102)" stroke-width="1"/><title>Police Forces of Ethiopia (2018-) Oromo Regional Special Forces → Sexual violence: 1</title></g><g style="mix-blend-mode: multiply;"><path d="M5,395.59065934065933C197.5,395.59065934065933,197.5,40.883699633699685,390,40.883699633699685" stroke="rgb(229, 88, 73)" stroke-width="3.7087912087912085"/><title>Military Forces of Ethiopia (2018-) → Shelling/artillery/missile attack: 81</title></g><g style="mix-blend-mode: multiply;"><path d="M5,24.59706959706961C197.5,24.59706959706961,197.5,0.3205128205128205,390,0.3205128205128205" stroke="rgb(254, 241, 168)" stroke-width="1"/><title>Unidentified Armed Group (Ethiopia) → Remote explosive/landmine/IED: 14</title></g><g style="mix-blend-mode: multiply;"><path d="M5,258.74542124542126C197.5,258.74542124542126,197.5,10.402930402930457,390,10.402930402930457" stroke="rgb(246, 130, 79)" stroke-width="1"/><title>OLF: Oromo Liberation Front (Shane Splinter Faction) → Sexual violence: 0</title></g><g style="mix-blend-mode: multiply;"><path d="M5,24.91758241758243C197.5,24.91758241758243,197.5,6.144688644688699,390,6.144688644688699" stroke="rgb(254, 241, 168)" stroke-width="1"/><title>Unidentified Armed Group (Ethiopia) → Sexual violence: 0</title></g><g style="mix-blend-mode: multiply;"><path d="M5,42.95787545787547C197.5,42.95787545787547,197.5,328.4432234432235,390,328.4432234432235" stroke="rgb(254, 241, 168)" stroke-width="3.846153846153846"/><title>Unidentified Armed Group (Ethiopia) → Armed clash: 84</title></g><g style="mix-blend-mode: multiply;"><path d="M5,25.283882783882795C197.5,25.283882783882795,197.5,15.769230769230818,390,15.769230769230818" stroke="rgb(254, 241, 168)" stroke-width="1"/><title>Unidentified Armed Group (Ethiopia) → Shelling/artillery/missile attack: 16</title></g><g style="mix-blend-mode: multiply;"><path d="M5,18.956043956043956C197.5,18.956043956043956,197.5,326.19963369963375,390,326.19963369963375" stroke="rgb(158, 1, 66)" stroke-width="1"/><title>Amhara Ethnic Militia (Ethiopia) → Armed clash: 14</title></g><g style="mix-blend-mode: multiply;"><path d="M5,393.7362637362637C197.5,393.7362637362637,197.5,10.402930402930457,390,10.402930402930457" stroke="rgb(229, 88, 73)" stroke-width="1"/><title>Military Forces of Ethiopia (2018-) → Sexual violence: 0</title></g><g style="mix-blend-mode: multiply;"><path d="M5,76.0119047619048C197.5,76.0119047619048,197.5,6.213369963370018,390,6.213369963370018" stroke="rgb(198, 47, 74)" stroke-width="1"/><title>Military Forces of Eritrea (1993-) → Sexual violence: 1</title></g><g style="mix-blend-mode: multiply;"><path d="M5,83.17765567765572C197.5,83.17765567765572,197.5,47.7380952380953,390,47.7380952380953" stroke="rgb(198, 47, 74)" stroke-width="1"/><title>Military Forces of Eritrea (1993-) → Government regains territory: 0</title></g><g style="mix-blend-mode: multiply;"><path d="M5,0C197.5,0,197.5,6.144688644688699,390,6.144688644688699" stroke="rgb(158, 1, 66)" stroke-width="1"/><title>Amhara Ethnic Militia (Ethiopia) → Sexual violence: 0</title></g><g style="mix-blend-mode: multiply;"><path d="M395,512.1199633699634C587.5,512.1199633699634,587.5,250.30677655677658,780,250.30677655677658" stroke="rgb(217, 240, 159)" stroke-width="135.76007326007326"/><title>Armed clash → Military Forces of Ethiopia (2018-): 2965</title></g><g style="mix-blend-mode: multiply;"><path d="M395,94.33608058608066C587.5,94.33608058608066,587.5,106.57051282051286,780,106.57051282051286" stroke="rgb(244, 249, 173)" stroke-width="7.921245421245421"/><title>Air/drone strike → OLF: Oromo Liberation Front (Shane Splinter Faction): 173</title></g><g style="mix-blend-mode: multiply;"><path d="M395,217.30769230769238C587.5,217.30769230769238,587.5,468.92857142857144,780,468.92857142857144" stroke="rgb(174, 222, 162)" stroke-width="207.14285714285714"/><title>Attack → Civilians (Ethiopia): 4524</title></g><g style="mix-blend-mode: multiply;"><path d="M395,56.27747252747258C587.5,56.27747252747258,587.5,16.497252747252745,780,16.497252747252745" stroke="rgb(124, 201, 166)" stroke-width="17.078754578754577"/><title>Government regains territory → TPLF: Tigray People's Liberation Front: 373</title></g><g style="mix-blend-mode: multiply;"><path d="M395,103.51648351648358C587.5,103.51648351648358,587.5,360.1373626373626,780,360.1373626373626" stroke="rgb(244, 249, 173)" stroke-width="10.439560439560438"/><title>Air/drone strike → Civilians (Ethiopia): 228</title></g><g style="mix-blend-mode: multiply;"><path d="M395,351.88644688644695C587.5,351.88644688644695,587.5,61.02564102564103,780,61.02564102564103" stroke="rgb(217, 240, 159)" stroke-width="52.014652014652015"/><title>Armed clash → TPLF: Tigray People's Liberation Front: 1136</title></g><g style="mix-blend-mode: multiply;"><path d="M395,411.06684981684987C587.5,411.06684981684987,587.5,143.7042124542125,780,143.7042124542125" stroke="rgb(217, 240, 159)" stroke-width="66.34615384615384"/><title>Armed clash → OLF: Oromo Liberation Front (Shane Splinter Faction): 1449</title></g><g style="mix-blend-mode: multiply;"><path d="M395,85.38461538461546C587.5,85.38461538461546,587.5,30.027472527472526,780,30.027472527472526" stroke="rgb(244, 249, 173)" stroke-width="9.981684981684982"/><title>Air/drone strike → TPLF: Tigray People's Liberation Front: 218</title></g><g style="mix-blend-mode: multiply;"><path d="M395,0.5723443223443223C587.5,0.5723443223443223,587.5,323.75915750915755,780,323.75915750915755" stroke="rgb(80, 166, 176)" stroke-width="1.1446886446886446"/><title>Remote explosive/landmine/IED → Civilians (Ethiopia): 25</title></g><g style="mix-blend-mode: multiply;"><path d="M395,29.57417582417587C587.5,29.57417582417587,587.5,341.753663003663,780,341.753663003663" stroke="rgb(94, 79, 162)" stroke-width="26.327838827838825"/><title>Shelling/artillery/missile attack → Civilians (Ethiopia): 575</title></g><g style="mix-blend-mode: multiply;"><path d="M395,75.39377289377295C587.5,75.39377289377295,587.5,182.42673992673994,780,182.42673992673994" stroke="rgb(124, 201, 166)" stroke-width="1"/><title>Government regains territory → Military Forces of Ethiopia (2018-): 0</title></g><g style="mix-blend-mode: multiply;"><path d="M395,8.273809523809579C587.5,8.273809523809579,587.5,326.4606227106227,780,326.4606227106227" stroke="rgb(67, 123, 179)" stroke-width="4.258241758241758"/><title>Sexual violence → Civilians (Ethiopia): 93</title></g><g style="mix-blend-mode: multiply;"><path d="M395,15.63186813186818C587.5,15.63186813186818,587.5,7.728937728937729,780,7.728937728937729" stroke="rgb(94, 79, 162)" stroke-width="1"/><title>Shelling/artillery/missile attack → TPLF: Tigray People's Liberation Front: 10</title></g><g style="mix-blend-mode: multiply;"><path d="M395,70.1053113553114C587.5,70.1053113553114,587.5,97.3214285714286,780,97.3214285714286" stroke="rgb(124, 201, 166)" stroke-width="10.576923076923077"/><title>Government regains territory → OLF: Oromo Liberation Front (Shane Splinter Faction): 231</title></g><g style="mix-blend-mode: multiply;"><path d="M395,16.135531135531185C587.5,16.135531135531185,587.5,182.15201465201469,780,182.15201465201469" stroke="rgb(94, 79, 162)" stroke-width="1"/><title>Shelling/artillery/missile attack → Military Forces of Ethiopia (2018-): 12</title></g></g><g><text x="399" y="0.5723443223443496" text-anchor="start"><tspan alignment-baseline="middle" x="399" style="font-family: Arial, sans-serif; font-size: 10px; fill: black; font-weight: bold;">Remote explosive/landmine/IED</tspan></text><text x="399" y="8.273809523809575" text-anchor="start"><tspan alignment-baseline="middle" x="399" style="font-family: Arial, sans-serif; font-size: 10px; fill: black; font-weight: bold;">Sexual violence</tspan></text><text x="9" y="9.638278388278394" text-anchor="start"><tspan alignment-baseline="middle" x="9" style="font-family: Arial, sans-serif; font-size: 10px; fill: black; font-weight: bold;">Amhara Ethnic Militia (Ethiopia)</tspan></text><text x="9" y="34.5787545787546" text-anchor="start"><tspan alignment-baseline="middle" x="9" style="font-family: Arial, sans-serif; font-size: 10px; fill: black; font-weight: bold;">Unidentified Armed Group (Ethiopia)</tspan></text><text x="9" y="60.43498168498172" text-anchor="start"><tspan alignment-baseline="middle" x="9" style="font-family: Arial, sans-serif; font-size: 10px; fill: black; font-weight: bold;">Police Forces of Ethiopia (2018-) Oromo Regional Special Forces</tspan></text><text x="399" y="29.070512820512874" text-anchor="start"><tspan alignment-baseline="middle" x="399" style="font-family: Arial, sans-serif; font-size: 10px; fill: black; font-weight: bold;">Shelling/artillery/missile attack</tspan></text><text x="399" y="61.56593406593413" text-anchor="start"><tspan alignment-baseline="middle" x="399" style="font-family: Arial, sans-serif; font-size: 10px; fill: black; font-weight: bold;">Government regains territory</tspan></text><text x="399" y="94.56501831501839" text-anchor="start"><tspan alignment-baseline="middle" x="399" style="font-family: Arial, sans-serif; font-size: 10px; fill: black; font-weight: bold;">Air/drone strike</tspan></text><text x="9" y="102.29395604395609" text-anchor="start"><tspan alignment-baseline="middle" x="9" style="font-family: Arial, sans-serif; font-size: 10px; fill: black; font-weight: bold;">Military Forces of Eritrea (1993-)</tspan></text><text x="776" y="47.26648351648353" text-anchor="end"><tspan alignment-baseline="middle" x="776" style="font-family: Arial, sans-serif; font-size: 10px; fill: black; font-weight: bold;">TPLF: Tigray People's Liberation Front</tspan></text><text x="776" y="134.45512820512823" text-anchor="end"><tspan alignment-baseline="middle" x="776" style="font-family: Arial, sans-serif; font-size: 10px; fill: black; font-weight: bold;">OLF: Oromo Liberation Front (Shane Splinter Faction)</tspan></text><text x="9" y="193.6721611721612" text-anchor="start"><tspan alignment-baseline="middle" x="9" style="font-family: Arial, sans-serif; font-size: 10px; fill: black; font-weight: bold;">TPLF: Tigray People's Liberation Front</tspan></text><text x="9" y="323.7408424908425" text-anchor="start"><tspan alignment-baseline="middle" x="9" style="font-family: Arial, sans-serif; font-size: 10px; fill: black; font-weight: bold;">OLF: Oromo Liberation Front (Shane Splinter Faction)</tspan></text><text x="776" y="250.0320512820513" text-anchor="end"><tspan alignment-baseline="middle" x="776" style="font-family: Arial, sans-serif; font-size: 10px; fill: black; font-weight: bold;">Military Forces of Ethiopia (2018-)</tspan></text><text x="9" y="486.86813186813185" text-anchor="start"><tspan alignment-baseline="middle" x="9" style="font-family: Arial, sans-serif; font-size: 10px; fill: black; font-weight: bold;">Military Forces of Ethiopia (2018-)</tspan></text><text x="399" y="217.30769230769238" text-anchor="start"><tspan alignment-baseline="middle" x="399" style="font-family: Arial, sans-serif; font-size: 10px; fill: black; font-weight: bold;">Attack</tspan></text><text x="776" y="447.8434065934066" text-anchor="end"><tspan alignment-baseline="middle" x="776" style="font-family: Arial, sans-serif; font-size: 10px; fill: black; font-weight: bold;">Civilians (Ethiopia)</tspan></text><text x="399" y="452.93956043956047" text-anchor="start"><tspan alignment-baseline="middle" x="399" style="font-family: Arial, sans-serif; font-size: 10px; fill: black; font-weight: bold;">Armed clash</tspan></text></g><g><text x="392.5" y="-4" text-anchor="middle" style="font-family: Arial, sans-serif; font-size: 12px; fill: rgb(123, 123, 123); font-weight: bold;">sub_event_type</text><text x="2.5" y="-4" text-anchor="middle" style="font-family: Arial, sans-serif; font-size: 12px; fill: rgb(123, 123, 123); font-weight: bold;">actor1</text><text x="782.5" y="3.5" text-anchor="middle" style="font-family: Arial, sans-serif; font-size: 12px; fill: rgb(123, 123, 123); font-weight: bold;">actor2</text></g></g></svg>