<?xml version="1.0" encoding="utf-8"?>
<!-- Generator: Adobe Illustrator 27.0.1, SVG Export Plug-In . SVG Version: 6.00 Build 0)  -->
<svg version="1.1" id="graphic" xmlns="http://www.w3.org/2000/svg" xmlns:xlink="http://www.w3.org/1999/xlink" x="0px" y="0px"
	 viewBox="0 0 786 565" style="enable-background:new 0 0 786 565;" xml:space="preserve">
<style type="text/css">
	.st0{fill:#ED6A5B;}
	.st1{fill:#C4625D;}
	.st2{fill:#F9302C;}
	.st3{font-family:'Calibri-Bold';}
	.st4{font-size:12.6px;}
	.st5{fill:none;stroke:#FFFFFF;stroke-width:3.78;}
</style>
<g id="areas">
</g>
<g id="lines">
</g>
<path id="point-0-0" class="st0" d="M387.3,91.4c65,0.3,117.5,53.3,117.2,118.3c-0.3,65-53.3,117.5-118.3,117.2
	c-65-0.3-117.5-53.3-117.2-118.3c0.2-36.2,17-70.4,45.6-92.6l50.2,65.4c-15.3,12.1-17.9,34.3-5.8,49.6c12.1,15.3,34.3,17.9,49.6,5.8
	s17.9-34.3,5.8-49.6c-6.6-8.3-16.6-13.2-27.2-13.4V91.4z"/>
<path id="point-0-1" class="st1" d="M315.5,115.4c16.2-12.3,35.2-20.2,55.4-22.9l10.8,81.7c-5.8,0.8-11.2,3.1-15.9,6.6L315.5,115.4z
	"/>
<path id="point-0-2" class="st2" d="M371.9,92.4c4.7-0.6,9.5-0.9,14.3-0.9v82.4c-1.2,0-2.4,0.1-3.5,0.2L371.9,92.4z"/>
<g id="lines-secondary">
</g>
<g id="data-points-secondary">
</g>
<g id="axes-highlights">
	<g>
		<g transform="">
		</g>
	</g>
</g>
<g transform="translate(445.3751757278343,447.49476981559377)" pointer-events="none">
	<text transform="matrix(1 0 0 1 -31.5451 -178.2251)" class="st3 st4">News</text>
	<text transform="matrix(1 0 0 1 -31.5451 -178.2251)" class="st5 st3 st4">News</text>
	<text transform="matrix(1 0 0 1 -22.0952 -164.9951)" class="st3 st4">43</text>
	<text transform="matrix(1 0 0 1 -22.0952 -164.9951)" class="st5 st3 st4">43</text>
	<text transform="matrix(1 0 0 1 -31.5451 -178.2251)" class="st0 st3 st4">News</text>
	<text transform="matrix(1 0 0 1 -22.0952 -164.9951)" class="st0 st3 st4">43</text>
</g>
<g transform="translate(318.5978480026655,110.65549017134285)" pointer-events="none">
	<text transform="matrix(1 0 0 1 0.9474 19.7491)" class="st3 st4">Op-Ed</text>
	<text transform="matrix(1 0 0 1 0.9474 19.7491)" class="st5 st3 st4">Op-Ed</text>
	<text transform="matrix(1 0 0 1 16.3406 32.979)" class="st3 st4">4</text>
	<text transform="matrix(1 0 0 1 16.3406 32.979)" class="st5 st3 st4">4</text>
	<text transform="matrix(1 0 0 1 0.9474 19.7491)" class="st1 st3 st4">Op-Ed</text>
	<text transform="matrix(1 0 0 1 16.3406 32.979)" class="st1 st3 st4">4</text>
</g>
<g transform="translate(375.7241665821126,97.33550087088943)" pointer-events="none">
	<text transform="matrix(1 0 0 1 -8.3037 2.6412)" class="st3 st4">Video</text>
	<text transform="matrix(1 0 0 1 -8.3037 2.6412)" class="st5 st3 st4">Video</text>
	<text transform="matrix(1 0 0 1 5.2314 15.8713)" class="st3 st4">1</text>
	<text transform="matrix(1 0 0 1 5.2314 15.8713)" class="st5 st3 st4">1</text>
	<text transform="matrix(1 0 0 1 -8.3037 2.6412)" class="st2 st3 st4">Video</text>
	<text transform="matrix(1 0 0 1 5.2314 15.8713)" class="st2 st3 st4">1</text>
</g>
<g id="stack-labels">
</g>
</svg>
