<?xml version="1.0" encoding="utf-8"?>
<!-- Generator: Adobe Illustrator 27.0.1, SVG Export Plug-In . SVG Version: 6.00 Build 0)  -->
<svg version="1.1" id="graphic" xmlns="http://www.w3.org/2000/svg" xmlns:xlink="http://www.w3.org/1999/xlink" x="0px" y="0px"
	 viewBox="0 0 786 565" style="enable-background:new 0 0 786 565;" xml:space="preserve">
<style type="text/css">
	.st0{fill:#ED5EC0;}
	.st1{fill:#C45AB7;}
	.st2{fill:#EA96F9;}
	.st3{fill:#B72D74;}
	.st4{fill:#8F247F;}
	.st5{fill:#781371;}
	.st6{fill:#5B068A;}
	.st7{fill:#570E60;}
	.st8{fill:#742189;}
	.st9{fill:#BD3A73;}
	.st10{font-family:'Calibri-Bold';}
	.st11{font-size:12px;}
	.st12{fill:none;stroke:#FFFFFF;stroke-width:3.78;}
</style>
<g id="areas">
</g>
<g id="lines">
</g>
<path id="point-0-0" class="st0" d="M399.3,10.5c1.1,0,2.3,0,3.4,0l-3.8,193.9L399.3,10.5z"/>
<path id="point-0-1" class="st1" d="M405.2,10.6c6.9,0.2,13.7,0.6,20.5,1.3l-20.3,192.8c-1.5-0.1-2.9-0.2-4.4-0.3L405.2,10.6z"/>
<path id="point-0-2" class="st2" d="M428.2,12.2c12.5,1.4,24.9,3.6,37.1,6.7l-48,187.9c-3.1-0.7-6.2-1.3-9.4-1.7L428.2,12.2z"/>
<path id="point-0-3" class="st3" d="M467.8,19.4c148,38.5,236.8,189.8,198.3,337.9c-38.5,148-189.8,236.8-337.9,198.3
	S91.4,365.8,129.9,217.7c6.3-24.2,15.8-47.4,28.3-69l167.4,97.9c-22.6,40-8.5,90.7,31.5,113.2c40,22.6,90.7,8.5,113.2-31.5
	s8.5-90.7-31.5-113.2c-6-3.4-12.4-6-19.1-7.8L467.8,19.4z"/>
<path id="point-0-4" class="st4" d="M159.6,146.5c0.2-0.4,0.4-0.7,0.6-1.1L326.6,245L159.6,146.5z"/>
<path id="point-0-5" class="st5" d="M161,144.1l165.9,100.3L161,144.1z"/>
<path id="point-0-6" class="st6" d="M161.8,142.8C188.3,99.5,226.3,64.2,271.6,41L359.3,214c-13,6.8-23.9,17-31.7,29.4L161.8,142.8z
	"/>
<path id="point-0-7" class="st7" d="M273.9,39.9c0.4-0.2,0.7-0.4,1.1-0.6l86,173.8L273.9,39.9z"/>
<path id="point-0-8" class="st8" d="M277.2,38.2c12-5.8,24.4-10.7,37-14.8L372,208.6c-3.2,1.1-6.4,2.3-9.5,3.8L277.2,38.2z"/>
<path id="point-0-9" class="st9" d="M316.7,22.7c25.9-8,52.9-12.1,80.1-12.2v193.9c-7.5,0.1-15,1.3-22.3,3.4L316.7,22.7z"/>
<g id="lines-secondary">
</g>
<g id="data-points-secondary">
</g>
<g id="axes-highlights">
	<g>
		<g transform="">
		</g>
	</g>
</g>
<g transform="translate(389.42035906128984,96.96024127688983)" pointer-events="none">
	<text transform="matrix(1 0 0 1 -13.2288 48.1777)" class="st10 st11">Editorial</text>
	<text transform="matrix(1 0 0 1 -13.2288 48.1777)" class="st12 st10 st11">Editorial</text>
	<text transform="matrix(1 0 0 1 5.3144 61.4077)" class="st10 st11">11</text>
	<text transform="matrix(1 0 0 1 5.3144 61.4077)" class="st12 st10 st11">11</text>
	<text transform="matrix(1 0 0 1 -13.2288 48.1777)" class="st0 st10 st11">Editorial</text>
	<text transform="matrix(1 0 0 1 5.3144 61.4077)" class="st0 st10 st11">11</text>
</g>
<g transform="translate(398.84028021046043,97.30748333681717)" pointer-events="none">
	<text transform="matrix(1 0 0 1 -37.9191 -64.5946)" class="st10 st11">Interactive Feature</text>
	<text transform="matrix(1 0 0 1 -37.9191 -64.5946)" class="st12 st10 st11">Interactive Feature</text>
	<text transform="matrix(1 0 0 1 11.0966 -51.3646)" class="st10 st11">43</text>
	<text transform="matrix(1 0 0 1 11.0966 -51.3646)" class="st12 st10 st11">43</text>
	<text transform="matrix(1 0 0 1 -37.9191 -64.5946)" class="st1 st10 st11">Interactive Feature</text>
	<text transform="matrix(1 0 0 1 11.0966 -51.3646)" class="st1 st10 st11">43</text>
</g>
<g transform="translate(419.2810087524025,99.77706135299607)" pointer-events="none">
	<text transform="matrix(1 0 0 1 1.1703 -26.1717)" class="st10 st11">Letter</text>
	<text transform="matrix(1 0 0 1 1.1703 -26.1717)" class="st12 st10 st11">Letter</text>
	<text transform="matrix(1 0 0 1 11.6661 -12.9417)" class="st10 st11">75</text>
	<text transform="matrix(1 0 0 1 11.6661 -12.9417)" class="st12 st10 st11">75</text>
	<text transform="matrix(1 0 0 1 1.1703 -26.1717)" class="st2 st10 st11">Letter</text>
	<text transform="matrix(1 0 0 1 11.6661 -12.9417)" class="st2 st10 st11">75</text>
</g>
<g transform="translate(456.8857363689479,443.14337810619736)" pointer-events="none">
	<text transform="matrix(1 0 0 1 -5.9575 10.4999)" class="st10 st11">News</text>
	<text transform="matrix(1 0 0 1 -5.9575 10.4999)" class="st12 st10 st11">News</text>
	<text transform="matrix(1 0 0 1 -3.515 23.73)" class="st10 st11">2574</text>
	<text transform="matrix(1 0 0 1 -3.515 23.73)" class="st12 st10 st11">2574</text>
	<text transform="matrix(1 0 0 1 -5.9575 10.4999)" class="st3 st10 st11">News</text>
	<text transform="matrix(1 0 0 1 -3.515 23.73)" class="st3 st10 st11">2574</text>
</g>
<g transform="translate(232.719262662766,185.0167088578465)" pointer-events="none">
	<text transform="matrix(1 0 0 1 -12.7159 23.7663)" class="st10 st11">News Analysis</text>
	<text transform="matrix(1 0 0 1 -12.7159 23.7663)" class="st12 st10 st11">News Analysis</text>
	<text transform="matrix(1 0 0 1 27.6682 36.9962)" class="st10 st11">7</text>
	<text transform="matrix(1 0 0 1 27.6682 36.9962)" class="st12 st10 st11">7</text>
	<text transform="matrix(1 0 0 1 -12.7159 23.7663)" class="st4 st10 st11">News Analysis</text>
	<text transform="matrix(1 0 0 1 27.6682 36.9962)" class="st4 st10 st11">7</text>
</g>
<g transform="translate(233.43742829392224,183.81885115910165)" pointer-events="none">
	<text transform="matrix(1 0 0 1 -82.8246 -15.1255)" class="st10 st11">Obituary (Obit)</text>
	<text transform="matrix(1 0 0 1 -82.8246 -15.1255)" class="st12 st10 st11">Obituary (Obit)</text>
	<text transform="matrix(1 0 0 1 -41.8807 -1.8955)" class="st10 st11">1</text>
	<text transform="matrix(1 0 0 1 -41.8807 -1.8955)" class="st12 st10 st11">1</text>
	<text transform="matrix(1 0 0 1 -82.8246 -15.1255)" class="st5 st10 st11">Obituary (Obit)</text>
	<text transform="matrix(1 0 0 1 -41.8807 -1.8955)" class="st5 st10 st11">1</text>
</g>
<g transform="translate(265.08975651969234,144.963130940287)" pointer-events="none">
	<text transform="matrix(1 0 0 1 -8.3969 10.5)" class="st10 st11">Op-Ed</text>
	<text transform="matrix(1 0 0 1 -8.3969 10.5)" class="st12 st10 st11">Op-Ed</text>
	<text transform="matrix(1 0 0 1 -1.126079e-02 23.73)" class="st10 st11">287</text>
	<text transform="matrix(1 0 0 1 -1.126079e-02 23.73)" class="st12 st10 st11">287</text>
	<text transform="matrix(1 0 0 1 -8.3969 10.5)" class="st6 st10 st11">Op-Ed</text>
	<text transform="matrix(1 0 0 1 -1.126079e-02 23.73)" class="st6 st10 st11">287</text>
</g>
<g transform="translate(307.16208374957864,115.8670681935555)" pointer-events="none">
	<text transform="matrix(1 0 0 1 -29.967 -41.2927)" class="st10 st11">Review</text>
	<text transform="matrix(1 0 0 1 -29.967 -41.2927)" class="st12 st10 st11">Review</text>
	<text transform="matrix(1 0 0 1 -11.7591 -28.0627)" class="st10 st11">7</text>
	<text transform="matrix(1 0 0 1 -11.7591 -28.0627)" class="st12 st10 st11">7</text>
	<text transform="matrix(1 0 0 1 -29.967 -41.2927)" class="st7 st10 st11">Review</text>
	<text transform="matrix(1 0 0 1 -11.7591 -28.0627)" class="st7 st10 st11">7</text>
</g>
<g transform="translate(320.8622176532092,109.73551344083307)" pointer-events="none">
	<text transform="matrix(1 0 0 1 -6.539 10.5)" class="st10 st11">Video</text>
	<text transform="matrix(1 0 0 1 -6.539 10.5)" class="st12 st10 st11">Video</text>
	<text transform="matrix(1 0 0 1 3.4925 23.7299)" class="st10 st11">79</text>
	<text transform="matrix(1 0 0 1 3.4925 23.7299)" class="st12 st10 st11">79</text>
	<text transform="matrix(1 0 0 1 -6.539 10.5)" class="st8 st10 st11">Video</text>
	<text transform="matrix(1 0 0 1 3.4925 23.7299)" class="st8 st10 st11">79</text>
</g>
<g transform="translate(360.36903750948034,99.00586140454507)" pointer-events="none">
	<text transform="matrix(1 0 0 1 -24.1431 -39.0143)" class="st10 st11">Briefing</text>
	<text transform="matrix(1 0 0 1 -24.1431 -39.0143)" class="st12 st10 st11">Briefing</text>
	<text transform="matrix(1 0 0 1 -10.854 -25.7843)" class="st10 st11">156</text>
	<text transform="matrix(1 0 0 1 -10.854 -25.7843)" class="st12 st10 st11">156</text>
	<text transform="matrix(1 0 0 1 -24.1431 -39.0143)" class="st9 st10 st11">Briefing</text>
	<text transform="matrix(1 0 0 1 -10.854 -25.7843)" class="st9 st10 st11">156</text>
</g>
</svg>
