<?xml version="1.0" encoding="utf-8"?>
<!-- Generator: Adobe Illustrator 27.0.0, SVG Export Plug-In . SVG Version: 6.00 Build 0)  -->
<svg version="1.1" id="Layer_1" xmlns="http://www.w3.org/2000/svg" xmlns:xlink="http://www.w3.org/1999/xlink" x="0px" y="0px"
	 viewBox="0 0 1624.9 1095.8" style="enable-background:new 0 0 1624.9 1095.8;" xml:space="preserve">
<style type="text/css">
	.st0{fill:none;stroke:#54278F;stroke-width:135.7601;}
	.st1{fill:none;stroke:#9E9AC8;stroke-width:7.9212;}
	.st2{fill:none;stroke:#756BB1;stroke-width:207.1429;}
	.st3{fill:none;stroke:#BCBDDC;stroke-width:17.0788;}
	.st4{fill:none;stroke:#9E9AC8;stroke-width:10.4396;}
	.st5{fill:none;stroke:#54278F;stroke-width:52.0147;}
	.st6{fill:none;stroke:#54278F;stroke-width:66.3462;}
	.st7{fill:none;stroke:#9E9AC8;stroke-width:9.9817;}
	.st8{fill:none;stroke:#DADAEB;stroke-width:26.3278;}
	.st9{fill:none;stroke:#BCBDDC;}
	.st10{fill:none;stroke:#F2F0F7;stroke-width:4.2582;}
	.st11{fill:none;stroke:#DADAEB;}
	.st12{fill:none;stroke:#BCBDDC;stroke-width:10.5769;}
	.st13{fill:none;stroke:#CB181D;stroke-width:63.2326;}
	.st14{fill:none;stroke:#99000D;stroke-width:28.3425;}
	.st15{fill:none;stroke:#FCBBA1;stroke-width:15.3846;}
	.st16{fill:none;stroke:#FC9272;stroke-width:7.5092;}
	.st17{fill:none;stroke:#EF3B2C;stroke-width:30.2656;}
	.st18{fill:none;stroke:#99000D;stroke-width:27.6557;}
	.st19{fill:none;stroke:#99000D;stroke-width:30.0366;}
	.st20{fill:none;stroke:#FEE5D9;stroke-width:18.6355;}
	.st21{fill:none;stroke:#99000D;stroke-width:96.5201;}
	.st22{fill:none;stroke:#FB6A4A;stroke-width:6.8681;}
	.st23{fill:none;stroke:#FC9272;stroke-width:13.5531;}
	.st24{fill:none;stroke:#CB181D;stroke-width:66.7582;}
	.st25{fill:none;stroke:#EF3B2C;stroke-width:69.4597;}
	.st26{fill:none;stroke:#EF3B2C;stroke-width:15.7509;}
	.st27{fill:none;stroke:#EF3B2C;}
	.st28{fill:none;stroke:#EF3B2C;stroke-width:4.1667;}
	.st29{fill:none;stroke:#FB6A4A;stroke-width:38.5531;}
	.st30{fill:none;stroke:#FB6A4A;stroke-width:7.1429;}
	.st31{fill:none;stroke:#FC9272;}
	.st32{fill:none;stroke:#99000D;stroke-width:3.7088;}
	.st33{fill:none;stroke:#CB181D;}
	.st34{fill:none;stroke:#FCBBA1;}
	.st35{fill:none;stroke:#FCBBA1;stroke-width:3.8462;}
	.st36{fill:none;stroke:#FEE5D9;}
	.st37{fill:none;stroke:#99000D;}
	.st38{fill:none;stroke:#FB6A4A;}
	.st39{font-family:'Calibri-Bold';}
	.st40{font-size:12px;}
	.st41{fill:none;}
	.st42{font-family:'Calibri-LightItalic';}
	.st43{font-size:10px;}
</style>
<path class="st0" d="M916.1,994.9c192.5,0,192.4-515,384.9-515"/>
<path class="st1" d="M917.1,514.3c192.5,0,191.4-178.1,383.9-178.1"/>
<path class="st2" d="M915.5,696.1c192.5,0,193,2.4,385.5,2.4"/>
<path class="st3" d="M916,364c192.5,0,192.5-117.8,385-117.8"/>
<path class="st4" d="M917.1,523.5c192.5,0,191.4,66.3,383.9,66.3"/>
<path class="st5" d="M916.1,834.7c192.5,0,192.4-544.1,384.9-544.1"/>
<path class="st6" d="M916.1,893.9c192.5,0,192.4-520.6,384.9-520.6"/>
<path class="st7" d="M917.1,505.3c192.5,0,191.4-245.7,383.9-245.7"/>
<path class="st8" d="M916.5,240.5c192.5,0,192,330.9,384.5,330.9"/>
<path class="st9" d="M916,383.1c192.5,0,192.5,29,385,29"/>
<path class="st10" d="M916.6,129.5c192.5,0,191.9,426.6,384.4,426.6"/>
<path class="st11" d="M916.5,226.5c192.5,0,192,10.8,384.5,10.8"/>
<path class="st12" d="M916,377.8c192.5,0,192.5-50.8,385-50.8"/>
<path class="st13" d="M356,586.7c192.5,0,192.5,342.5,385,342.5"/>
<path class="st14" d="M356,668.9c192.5,0,193.1-154.8,385.6-154.8"/>
<path class="st15" d="M356,263c192.5,0,192.6,351.9,385.1,351.9"/>
<path class="st16" d="M356,283.3c192.5,0,192.6,343.1,385.1,343.1"/>
<path class="st17" d="M356,398.8c192.5,0,192.6,285,385.1,285"/>
<path class="st18" d="M356,640.9c192.5,0,192.5-271.6,385-271.6"/>
<path class="st19" d="M356,698.1c192.5,0,192.6,82.6,385.1,82.6"/>
<path class="st20" d="M356,238.9c192.5,0,192.6,359,385.1,359"/>
<path class="st21" d="M356,761.4c192.5,0,192.5,247.7,385,247.7"/>
<path class="st22" d="M356,354.8c192.5,0,192.5,469.9,385,469.9"/>
<path class="st23" d="M356,293.8c192.5,0,192.5,520.7,385,520.7"/>
<path class="st24" d="M356,521.7c192.5,0,192.6,210.6,385.1,210.6"/>
<path class="st25" d="M356,448.6c192.5,0,192.5,414.2,385,414.2"/>
<path class="st26" d="M356,375.8c192.5,0,192.7-133.6,385.2-133.6"/>
<path class="st27" d="M356,383.6c192.5,0,192.5-28.2,385-28.2"/>
<path class="st28" d="M356,365.8c192.5,0,192.5-236.8,385-236.8"/>
<path class="st29" d="M356,332.1c192.5,0,192.6,317.3,385.1,317.3"/>
<path class="st30" d="M356,309.2c192.5,0,192.7-78.5,385.2-78.5"/>
<path class="st31" d="M356,279.5c192.5,0,192.5-152.7,385-152.7"/>
<path class="st32" d="M356,625.2c192.5,0,192.7-373.3,385.2-373.3"/>
<path class="st33" d="M356,488.4c192.5,0,192.5-357.3,385-357.3"/>
<path class="st34" d="M356,254.5c192.5,0,192.5-127.7,385-127.7"/>
<path class="st35" d="M356,272.6c192.5,0,192.5,533.2,385,533.2"/>
<path class="st34" d="M356,254.9c192.5,0,192.7-28.1,385.2-28.1"/>
<path class="st36" d="M356,248.6c192.5,0,192.5,555.3,385,555.3"/>
<path class="st37" d="M356,623.4c192.5,0,192.5-492.3,385-492.3"/>
<path class="st38" d="M356,305.6c192.5,0,192.5-178.7,385-178.7"/>
<path class="st38" d="M356,312.8c192.5,0,192.5,42.6,385,42.6"/>
<path class="st36" d="M356,229.6c192.5,0,192.5-102.8,385-102.8"/>
<path class="st11" d="M916.5,227c192.5,0,192,184.7,384.5,184.7"/>
<text transform="matrix(1 0 0 1 184.8164 241.7363)" class="st39 st40">Amhara Ethnic Militia (Ethiopia)</text>
<text transform="matrix(1 0 0 1 160.2246 266.6768)" class="st39 st40">Unidentified Armed Group (Ethiopia)</text>
<text transform="matrix(1 0 0 1 28.5527 289.5331)" class="st39 st40">Police Forces of Ethiopia (2018-) Oromo Regional Special Forces</text>
<polygon points="741,126.3 746,76.3 746,181.6 741,131.6 "/>
<rect x="351" y="229.1" width="5" height="19.9"/>
<rect x="351" y="253.9" width="5" height="20.6"/>
<rect x="351" y="279" width="5" height="21.6"/>
<polygon points="741,226.3 746,191.3 746,288.8 741,253.8 "/>
<polygon points="741,354.9 746,304.9 746,433.1 741,383.1 "/>
<polygon points="741.6,500.2 746.6,446.3 746.6,578.5 741.6,528.5 "/>
<rect x="351" y="305.6" width="5" height="52.6"/>
<rect x="1301" y="236.9" width="5" height="79.8"/>
<rect x="1301" y="321.7" width="5" height="84.8"/>
<rect x="351" y="363.2" width="5" height="120.1"/>
<rect x="351" y="488.4" width="5" height="130"/>
<rect x="1301" y="411.1" width="5" height="136.7"/>
<rect x="351" y="622.9" width="5" height="186.7"/>
<rect x="741" y="588.4" width="5" height="207.1"/>
<rect x="1301" y="554" width="5" height="248.2"/>
<rect x="741" y="803.4" width="5" height="253.9"/>
<polygon points="911.6,77.3 916.6,127.3 916.6,131.6 911.6,181.6 "/>
<polygon points="911.6,191.1 916.6,226.1 916.6,253.8 911.6,288.8 "/>
<polygon points="911.6,305.4 916.6,355.4 916.6,383.5 911.6,433.5 "/>
<polygon points="912.1,446.3 917.1,500.2 917.1,528.5 912.1,578.5 "/>
<rect x="911.6" y="592.6" width="5" height="207.1"/>
<rect x="911.6" y="809.2" width="5" height="254.1"/>
<g>
	<text transform="matrix(1 0 0 1 762.1685 642.6829)" class="st39 st40">Attack on Non-combatants</text>
	<rect x="752.1" y="647.6" class="st41" width="153.9" height="120.5"/>
	<text transform="matrix(1 0 0 1 756.9628 654.3756)"><tspan x="0" y="0" class="st42 st43">Lorem ipsum dolor sit amet, consec</tspan><tspan x="141.1" y="0" class="st42 st43">-</tspan><tspan x="11" y="12" class="st42 st43">tetuer adipiscing elit, sed diam </tspan><tspan x="-0.1" y="24" class="st42 st43">nonummy nibh euismod tincidunt ut </tspan><tspan x="2.1" y="36" class="st42 st43">laoreet dolore magna aliquam erat </tspan><tspan x="8.5" y="48" class="st42 st43">volutpat. Ut wisi enim ad minim </tspan><tspan x="4.6" y="60" class="st42 st43">veniam, quis nostrud exerci tation </tspan><tspan x="2.7" y="72" class="st42 st43">ullamcorper suscipit lobortis nisl ut </tspan><tspan x="2.8" y="84" class="st42 st43">aliquip ex ea commodo consequat. </tspan><tspan x="4.8" y="96" class="st42 st43">Duis autem vel eum iriure dolor in </tspan><tspan x="28.7" y="108" class="st42 st43">hendrerit in vulputate </tspan></text>
</g>
<g>
	<text transform="matrix(1 0 0 1 788.0408 451.8905)" class="st39 st40">Air/Drone Strike</text>
	<rect x="752.1" y="456.1" class="st41" width="153.9" height="120.5"/>
	<text transform="matrix(1 0 0 1 756.9628 462.9259)"><tspan x="0" y="0" class="st42 st43">Lorem ipsum dolor sit amet, consec</tspan><tspan x="141.1" y="0" class="st42 st43">-</tspan><tspan x="11" y="12" class="st42 st43">tetuer adipiscing elit, sed diam </tspan><tspan x="-0.1" y="24" class="st42 st43">nonummy nibh euismod tincidunt ut </tspan><tspan x="2.1" y="36" class="st42 st43">laoreet dolore magna aliquam erat </tspan><tspan x="8.5" y="48" class="st42 st43">volutpat. Ut wisi enim ad minim </tspan><tspan x="4.6" y="60" class="st42 st43">veniam, quis nostrud exerci tation </tspan><tspan x="2.7" y="72" class="st42 st43">ullamcorper suscipit lobortis nisl ut </tspan><tspan x="2.8" y="84" class="st42 st43">aliquip ex ea commodo consequat. </tspan><tspan x="4.8" y="96" class="st42 st43">Duis autem vel eum iriure dolor in </tspan><tspan x="28.7" y="108" class="st42 st43">hendrerit in vulputate </tspan></text>
</g>
<g>
	<text transform="matrix(1 0 0 1 753.5436 311.3991)" class="st39 st40">Government Regains Territory</text>
	<rect x="752.1" y="317.5" class="st41" width="153.9" height="120.5"/>
	<text transform="matrix(1 0 0 1 756.9628 324.304)"><tspan x="0" y="0" class="st42 st43">Lorem ipsum dolor sit amet, consec</tspan><tspan x="141.1" y="0" class="st42 st43">-</tspan><tspan x="11" y="12" class="st42 st43">tetuer adipiscing elit, sed diam </tspan><tspan x="-0.1" y="24" class="st42 st43">nonummy nibh euismod tincidunt ut </tspan><tspan x="2.1" y="36" class="st42 st43">laoreet dolore magna aliquam erat </tspan><tspan x="8.5" y="48" class="st42 st43">volutpat. Ut wisi enim ad minim </tspan><tspan x="4.6" y="60" class="st42 st43">veniam, quis nostrud exerci tation </tspan><tspan x="2.7" y="72" class="st42 st43">ullamcorper suscipit lobortis nisl ut </tspan><tspan x="2.8" y="84" class="st42 st43">aliquip ex ea commodo consequat. </tspan><tspan x="4.8" y="96" class="st42 st43">Duis autem vel eum iriure dolor in </tspan><tspan x="28.7" y="108" class="st42 st43">hendrerit in vulputate </tspan></text>
</g>
<g>
	<text transform="matrix(1 0 0 1 790.6138 79.7609)" class="st39 st40">Sexual violence</text>
	<rect x="752.1" y="84.3" class="st41" width="153.9" height="100.6"/>
	<text transform="matrix(1 0 0 1 756.9628 91.1203)"><tspan x="0" y="0" class="st42 st43">Lorem ipsum dolor sit amet, consec</tspan><tspan x="141.1" y="0" class="st42 st43">-</tspan><tspan x="11" y="12" class="st42 st43">tetuer adipiscing elit, sed diam </tspan><tspan x="-0.1" y="24" class="st42 st43">nonummy nibh euismod tincidunt ut </tspan><tspan x="2.1" y="36" class="st42 st43">laoreet dolore magna aliquam erat </tspan><tspan x="8.5" y="48" class="st42 st43">volutpat. Ut wisi enim ad minim </tspan><tspan x="4.6" y="60" class="st42 st43">veniam, quis nostrud exerci tation </tspan><tspan x="2.7" y="72" class="st42 st43">ullamcorper suscipit lobortis nisl ut </tspan><tspan x="2.8" y="84" class="st42 st43">aliquip ex ea commodo consequat.</tspan></text>
</g>
<g>
	<text transform="matrix(1 0 0 1 749.3253 206.2423)" class="st39 st40">Shelling/Artillery/Missile Attack</text>
	<rect x="752.1" y="210.7" class="st41" width="153.9" height="74.3"/>
	<text transform="matrix(1 0 0 1 756.9628 217.5279)"><tspan x="0" y="0" class="st42 st43">Lorem ipsum dolor sit amet, consec</tspan><tspan x="141.1" y="0" class="st42 st43">-</tspan><tspan x="11" y="12" class="st42 st43">tetuer adipiscing elit, sed diam </tspan><tspan x="-0.1" y="24" class="st42 st43">nonummy nibh euismod tincidunt ut </tspan><tspan x="2.1" y="36" class="st42 st43">laoreet dolore magna aliquam erat </tspan><tspan x="-2.8" y="48" class="st42 st43">volutpat. Lorem ipsum dolor sit amet, </tspan><tspan x="17.9" y="60" class="st42 st43">consectetuer adipiscing elit </tspan></text>
</g>
<g>
	<text transform="matrix(1 0 0 1 1313.3616 426.3773)" class="st39 st40">Military Forces of Ethiopia (2018-)</text>
	<rect x="1313.4" y="433.2" class="st41" width="210.4" height="120.5"/>
	<text transform="matrix(1 0 0 1 1313.3612 440.0139)"><tspan x="0" y="0" class="st42 st43">Lorem ipsum dolor sit amet, consectetur adipiscing </tspan><tspan x="0" y="12" class="st42 st43">elit, sed do eiusmod tempor incididunt ut labore et </tspan><tspan x="0" y="24" class="st42 st43">dolore magna aliqua. Mauris vitae ultricies leo </tspan><tspan x="0" y="36" class="st42 st43">integer malesuada nunc vel risus. Sed arcu non odio </tspan><tspan x="0" y="48" class="st42 st43">euismod lacinia at quis risus sed. Volutpat est velit </tspan><tspan x="0" y="60" class="st42 st43">egestas dui id ornare arcu odio ut. Nascetur ridiculus </tspan><tspan x="0" y="72" class="st42 st43">mus mauris vitae ultricies leo integer malesuada </tspan><tspan x="0" y="84" class="st42 st43">nunc. Orci dapibus ultrices in iaculis nunc sed. Tellus </tspan><tspan x="0" y="96" class="st42 st43">id interdum velit laoreet id donec ultrices.</tspan></text>
</g>
<g>
	<text transform="matrix(1 0 0 1 1313.3613 331.6744)" class="st39 st40">OLF: Oromo Liberation Front (Shane Splinter Faction)</text>
	<rect x="1313.4" y="338.2" class="st41" width="259.2" height="64.6"/>
	<text transform="matrix(1 0 0 1 1313.3611 344.9501)"><tspan x="0" y="0" class="st42 st43">Lorem ipsum dolor sit amet, consectetur adipiscing elit, sed do </tspan><tspan x="0" y="12" class="st42 st43">eiusmod tempor incididunt ut labore et dolore magna aliqua. </tspan><tspan x="0" y="24" class="st42 st43">Mauris vitae ultricies leo integer malesuada nunc vel risus. Sed </tspan><tspan x="0" y="36" class="st42 st43">arcu non odio euismod lacinia at quis risus sed. Volutpat est velit </tspan><tspan x="0" y="48" class="st42 st43">egestas dui id ornare arcu odio ut.</tspan></text>
</g>
<g>
	<text transform="matrix(1 0 0 1 1313.3613 247.0878)" class="st39 st40">TPLF: Tigray People&apos;s Liberation Front</text>
	<rect x="1313.4" y="252.4" class="st41" width="259.2" height="64.6"/>
	<text transform="matrix(1 0 0 1 1313.3611 259.1841)"><tspan x="0" y="0" class="st42 st43">Lorem ipsum dolor sit amet, consectetur adipiscing elit, sed do </tspan><tspan x="0" y="12" class="st42 st43">eiusmod tempor incididunt ut labore et dolore magna aliqua. </tspan><tspan x="0" y="24" class="st42 st43">Mauris vitae ultricies leo integer malesuada nunc vel risus. Sed </tspan><tspan x="0" y="36" class="st42 st43">arcu non odio euismod lacinia at quis risus sed. Volutpat est velit </tspan><tspan x="0" y="48" class="st42 st43">egestas dui id ornare arcu odio ut.</tspan></text>
</g>
<g>
	<text transform="matrix(1 0 0 1 1313.3613 614.9153)" class="st39 st40">Civilians (Ethiopia)</text>
	<rect x="1313.4" y="621.7" class="st41" width="210.4" height="120.5"/>
	<text transform="matrix(1 0 0 1 1313.3611 628.4399)"><tspan x="0" y="0" class="st42 st43">Lorem ipsum dolor sit amet, consectetur adipiscing </tspan><tspan x="0" y="12" class="st42 st43">elit, sed do eiusmod tempor incididunt ut labore et </tspan><tspan x="0" y="24" class="st42 st43">dolore magna aliqua. Mauris vitae ultricies leo </tspan><tspan x="0" y="36" class="st42 st43">integer malesuada nunc vel risus. Sed arcu non odio </tspan><tspan x="0" y="48" class="st42 st43">euismod lacinia at quis risus sed. Volutpat est velit </tspan><tspan x="0" y="60" class="st42 st43">egestas dui id ornare arcu odio ut. Nascetur ridiculus </tspan><tspan x="0" y="72" class="st42 st43">mus mauris vitae ultricies leo integer malesuada </tspan><tspan x="0" y="84" class="st42 st43">nunc. Orci dapibus ultrices in iaculis nunc sed. Tellus </tspan><tspan x="0" y="96" class="st42 st43">id interdum velit laoreet id donec ultrices.</tspan></text>
</g>
<g>
	<text transform="matrix(1 0 0 1 797.5508 884.8544)" class="st39 st40">Armed Clash</text>
	<rect x="752.1" y="890.1" class="st41" width="153.9" height="120.5"/>
	<text transform="matrix(1 0 0 1 756.9628 896.8727)"><tspan x="0" y="0" class="st42 st43">Lorem ipsum dolor sit amet, consec</tspan><tspan x="141.1" y="0" class="st42 st43">-</tspan><tspan x="11" y="12" class="st42 st43">tetuer adipiscing elit, sed diam </tspan><tspan x="-0.1" y="24" class="st42 st43">nonummy nibh euismod tincidunt ut </tspan><tspan x="2.1" y="36" class="st42 st43">laoreet dolore magna aliquam erat </tspan><tspan x="8.5" y="48" class="st42 st43">volutpat. Ut wisi enim ad minim </tspan><tspan x="4.6" y="60" class="st42 st43">veniam, quis nostrud exerci tation </tspan><tspan x="2.7" y="72" class="st42 st43">ullamcorper suscipit lobortis nisl ut </tspan><tspan x="2.8" y="84" class="st42 st43">aliquip ex ea commodo consequat. </tspan><tspan x="4.8" y="96" class="st42 st43">Duis autem vel eum iriure dolor in </tspan><tspan x="28.7" y="108" class="st42 st43">hendrerit in vulputate </tspan></text>
</g>
<g>
	<text transform="matrix(1 0 0 1 175.1426 663.6204)" class="st39 st40">Military Forces of Ethiopia (2018-)</text>
	<rect x="125.8" y="671.7" class="st41" width="218.6" height="114.4"/>
	<text transform="matrix(1 0 0 1 136.5763 678.4796)"><tspan x="0" y="0" class="st42 st43">Lorem ipsum dolor sit amet, consectetuer adipiscing </tspan><tspan x="8" y="12" class="st42 st43">elit, sed diam nonummy nibh euismod tincidunt ut </tspan><tspan x="0.3" y="24" class="st42 st43">laoreet dolore magna aliquam erat volutpat. Ut wisi </tspan><tspan x="10.9" y="36" class="st42 st43">enim ad minim veniam, quis nostrud exerci tation </tspan><tspan x="16.7" y="48" class="st42 st43">ullamcorper suscipit lobortis nisl ut aliquip ex ea </tspan><tspan x="-5.7" y="60" class="st42 st43">commodo consequat. Duis autem vel eum iriure dolor </tspan><tspan x="-9" y="72" class="st42 st43">in hendrerit in vulputate velit esse molestie consequat, </tspan><tspan x="-8.5" y="84" class="st42 st43">vel illum dolore eu feugiat nulla facilisis at vero eros et </tspan><tspan x="61.5" y="96" class="st42 st43">accumsan et iusto odio dignissim qui </tspan></text>
</g>
<g>
	<text transform="matrix(1 0 0 1 80.2853 514.9178)" class="st39 st40">OLF: Oromo Liberation Front (Shane Splinter Faction)</text>
	<rect x="125.8" y="521.2" class="st41" width="218.6" height="84.2"/>
	<text transform="matrix(1 0 0 1 136.5763 527.9413)"><tspan x="0" y="0" class="st42 st43">Lorem ipsum dolor sit amet, consectetuer adipiscing </tspan><tspan x="8" y="12" class="st42 st43">elit, sed diam nonummy nibh euismod tincidunt ut </tspan><tspan x="0.3" y="24" class="st42 st43">laoreet dolore magna aliquam erat volutpat. Ut wisi </tspan><tspan x="10.9" y="36" class="st42 st43">enim ad minim veniam, quis nostrud exerci tation </tspan><tspan x="16.7" y="48" class="st42 st43">ullamcorper suscipit lobortis nisl ut aliquip ex ea </tspan><tspan x="-5.7" y="60" class="st42 st43">commodo consequat. Duis autem vel eum iriure dolor </tspan><tspan x="-9" y="72" class="st42 st43">in hendrerit in vulputate velit esse molestie consequat. </tspan></text>
</g>
<g>
	<text transform="matrix(1 0 0 1 157.4706 388.6533)" class="st39 st40">TPLF: Tigray People&apos;s Liberation Front</text>
	<rect x="125.8" y="395" class="st41" width="218.6" height="75.2"/>
	<text transform="matrix(1 0 0 1 136.5762 401.7367)"><tspan x="0" y="0" class="st42 st43">Lorem ipsum dolor sit amet, consectetuer adipiscing </tspan><tspan x="8" y="12" class="st42 st43">elit, sed diam nonummy nibh euismod tincidunt ut </tspan><tspan x="0.3" y="24" class="st42 st43">laoreet dolore magna aliquam erat volutpat. Ut wisi </tspan><tspan x="10.9" y="36" class="st42 st43">enim ad minim veniam, quis nostrud exerci tation </tspan><tspan x="16.7" y="48" class="st42 st43">ullamcorper suscipit lobortis nisl ut aliquip ex ea </tspan><tspan x="121.6" y="60" class="st42 st43">commodo consequat.</tspan></text>
</g>
<g>
	<text transform="matrix(1 0 0 1 182.8477 321.3615)" class="st39 st40">Military Forces of Eritrea (1993-)</text>
	<rect x="71.1" y="329.2" class="st41" width="273.2" height="28.6"/>
	<text transform="matrix(1 0 0 1 81.1319 335.9681)"><tspan x="0" y="0" class="st42 st43">Lorem ipsum dolor sit amet, consectetuer adipiscing elit, sed diam </tspan><tspan x="-4.6" y="12" class="st42 st43">nonummy nibh euismod tincidunt ut laoreet dolore magna aliquam </tspan></text>
</g>
</svg>
