<?xml version="1.0" encoding="utf-8"?>
<!-- Generator: Adobe Illustrator 27.0.0, SVG Export Plug-In . SVG Version: 6.00 Build 0)  -->
<svg version="1.1" id="Layer_1" xmlns="http://www.w3.org/2000/svg" xmlns:xlink="http://www.w3.org/1999/xlink" x="0px" y="0px"
	 viewBox="0 0 1192.1 1019.4" style="enable-background:new 0 0 1192.1 1019.4;" xml:space="preserve">
<style type="text/css">
	.st0{fill:#7C7C7C;stroke:#FFFFFF;stroke-width:2;stroke-linecap:round;stroke-linejoin:round;}
	.st1{fill:#8740A3;stroke:#FFFFFF;stroke-width:2;stroke-linecap:round;stroke-linejoin:round;}
	
		.st2{fill:url(#ETH3131_00000090983787450008420620000004281791511215692455_);stroke:#FFFFFF;stroke-width:2;stroke-linecap:round;stroke-linejoin:round;}
	.st3{fill:#F0533A;stroke:#FFFFFF;stroke-width:2;stroke-linecap:round;stroke-linejoin:round;}
	.st4{fill:#A3311F;}
	.st5{fill:none;stroke:#000000;stroke-width:2;stroke-linecap:round;stroke-linejoin:round;}
	.st6{font-family:'Calibri-BoldItalic';}
	.st7{font-size:12px;}
	.st8{fill:none;}
	.st9{font-size:14px;}
	.st10{font-family:'Calibri-LightItalic';}
	.st11{font-size:11px;}
	.st12{fill:none;stroke:#000000;stroke-width:2;stroke-miterlimit:10;}
</style>
<path id="ETH3109" class="st0" d="M645.2,417.6l-1.1,3.2l-0.1,0.7v1.7l0.5,2l1.7,3.5l0.5,1.8v1l-0.1,0.9v0.8l1.3,1.8l0.4,0.9
	l0.2,1.1l0.2,1l-0.1,2l0.1,0.9l0.4,1l0.4,0.9l0.9,1.1l1.6,1l0.1,0.3l-0.5,6.6v1.9l0.5,1.3l2.3,4.3l1.2,1.4l1.4,1.2l1.5,0.7l0.5,0.7
	l0.4,1.5l0.5,3.5l0.6,1.5l2.8,4.7l0.6,1.6l0.6,3.7v2l-0.2,2l2.1,2.2l1.2,1.2l1,1.3l2.7,4.9l0.7,1.8l0.4,1.8l0.2,3.2l0.3,2.4v1.2
	l-0.3,1.2l-0.4,1l-3.8,5.7l1.7,1.9l0.7,1.8l-0.1,1.8L670,519l-2,3.4l-0.5,1.5v1.5l0.8,1.8l2.1,2.6l0.4,0.8v1.5l-0.7,3.3v1.7l1.5,4.9
	l0.1,0.9l-0.3,1.3l-0.8,1.4l-0.3,1.4l-0.7,8.5l-0.2,1.3l-1.3,3.1l-0.2,1.9l0.2,1.7l0.4,1.8l0.2,1.8l-0.1,1.4l-0.5,0.4l-1-0.1
	l-1.5-0.4l-1.4-0.2l-1.6-0.1l-1.6,0.4l-1.1,0.9l-0.7,1.7l0.1,1.4l0.8,1.2l1.5,1.1l2,1.2l1.4,1l0.6,1.4l-0.1,2.6l-0.5,1.4l-1.9,2.7
	l-0.6,1.3l-1.8,2.4v0.9l0.8,1.5l0.3,0.8l-0.9,1.9h-2.6l-5.6-1.6L650,593l0.2,2.7l2.5,6.4l0.1,3.5l-0.4,3.4l-1.3,3.1l-2.4,2.4l-1.4,1
	l-0.9,1.1l-0.2,1l0.9,1.1l0.7,0.3l1.8,0.5l0.9,0.4l2.4,1.9l-0.1,3.2l-1.8,3.1l-2.2,3l-1.6,2.6l-2.9,2.4l0.2,13.7l-0.7,2l-2.1,1.3
	l-6.8,2.4l-2.3,1.4l-3.2,2.3l-1.4,0.3l-1.7-0.9l-2.4-3.7l-2-0.7l-1,0.4l-3.4,3.4l-1.5,0.1l-1.2-0.3l-0.8-0.6l-0.5-0.7l-1.7-3.7
	l-0.1-1.1l0.2-1.3l-0.2-3.9l5.7-9.3l0.8-2.2l-0.2-2l-1.4-1.1l-3.5-0.7l-1.4-1.1l-0.9-2.2l-0.6-2.5l-0.2-1.9l0.4-0.6l1.1-0.1l1.6,0.1
	l5.7-0.4l0.9-0.4l3.3-2.4l1.7-0.3l2.3,0.8h0.1l-3.9-4.1l-0.4-0.6l0.2-1.6l-1.4-0.8l-2-0.4l-1.5,0.1l-2.4-0.5l-2.2-2.8l-2.4-4.3
	l-3.2-4.7l-7.7-3.4l-12.1-2.5l-4.3-2.1l-2.2-2.7l-1.1-3.1l-0.5-3.3l-0.1-3.4l-0.2-0.4l-1.2-1.8l-0.8-0.7l-1.2-0.9l-4.2-1.6l-1.3-1.2
	l-0.1-2l2.6,0.5l2.6-0.6l4.4-2.3l0.8-1l2.9-13.6l0.1-2.5l-1.2-0.9l-7.7-1.4l-15.6,0.8l-0.6,0.5l-0.4,0.7l-1.7,7.3l-0.5,0.7l-0.5,0.5
	l-0.7,0.3l-0.3,0.4v0.9l0.5,1.4l0.1,0.7l-0.2,0.8l-0.9,1.3l-1.5,0.7l-1.7,0.3h-1.6l-1.7-0.5l-1.3,0.2l-1.8,0.6l-1.9,0.4l-0.8,0.7
	l-0.6,1.4l-1.7,1.7l-1.1,0.7l-4,1l-9.5,4.5l-3.1,2.2l-0.6,0.2l-1.8,0.2l-0.5,0.3l-1,1.3l-0.6,0.6l-4.7,2.6l-0.6,0.2l-1.7-0.3l-1,0.2
	l-1.8,1h-1.1l-6.2-4.6l-1-1.2l-0.4-0.8l-1.5-1.8l-1.4-1.9l-0.9-0.7l-6.4-2.9l-2.2-0.6l-2.3-0.3l-1,0.3l-0.6,1.9l-0.7,0.8l-0.7,0.1
	l-0.5-0.4l-0.8-1.1l-0.3-0.8v-1.5l-0.1-0.8l-0.5-0.7l-1.1-0.5l-1.1-0.3h-0.9l-1.2,0.2l-1-0.4l-1.6-1.7l-0.9-2.3l0.8-2l1-2l-0.2-1.8
	l-1-0.5h-4.5l-1.3-0.5l-1.3-0.7l-1.9-1.6l-9.6-1.8l-2.7-1l-1.4-0.3l-3.1-0.2l-1.3-0.5l-1.2-1.2h-0.6l-1.6,0.4l-0.6,0.1l-7.6-0.7
	h-3.1l-1.3-0.5l-0.9-1.3l-0.1-1.2l0.2-1.2v-1.1l-0.7-1l-0.8-0.3l-0.7,0.1l-3.3,1.6l-1.6-0.1l-1.6-1.1l-1.4-1.7l-1.4-2.1l-1-2.9
	l-0.5-3.8l4.4-9.9l-0.9-1.2h-1.5l-1.3,0.5l-0.9,0.9l-0.6,1.4h-0.2l-0.2-1.2v-1.9l0.2-2l1.6-3.8v-1l0.2-1l0.9-1.4l1.1-1.4l1-1.1
	l3.5-2.7l1.8-2l1.7-2.9l-2-4.3l0.2-0.9l0.6-1.2l-0.2-1.4l-0.3-1.4l-0.2-1.2l0.7-1.5l1.2-1.7l1-2l0.2-2.7l-4.1-4.1l-1.1-0.7l-1.6-1.4
	l0.6-1.4l1.3-1.3l0.8-1.1l-0.1-0.6l-3.9-5.9l-2.2-2.3l-0.8-1.3l-0.3-6.1l0.3-4.5l-0.4-0.7l-1.6,0.5l-2.6,1.9l-2.6,2.3l-2.8,3
	l-1.2,0.8l-1.4,0.1l-1.3-0.6l-1-3.1l-0.5-3.4l-0.7-1.6l-1.6-2l-2.3-3.8l-0.3-0.4l-2.8-2.4l-0.9-0.9l-0.8-1.8l-0.6-0.8l-1.6-1
	l-0.3-0.3l-1.1-0.3h-1.9l-1.7-0.2l-0.8-1.3l-0.7-0.1h-2l-2.8-0.3l-0.4,0.4l-1.8,4.4l-1.1,1.5l-8.4,6.6l-1.6,1.7l-1.4,1.2l-1.4,0.2
	l-1.8-0.2l-2,0.3l-3.7,1.2h-1.4l-1.6-0.8l-1.7-1.4l-1.8-2l-2.6-6.1l-1.7-1.5l0.2-0.9l0.6-0.6l2.5-1.5l1.3-1.5l0.5-1.6l0.7-3.7l1.2-3
	l0.5-0.8l0.6-0.6l1.5-0.7l0.7-0.6l0.6-0.9l0.2-0.9l0.2-1.9l0.7-1.9l12.5-21l0.6-0.7l0.6-0.2l1.3-0.1l0.5-0.3l0.7-0.7l0.8-3.2
	l0.2-0.5l1-0.5l1.7-0.6l20.1-2.9l1.4,0.1l1.4,0.9l1.8,0.5l1.1-0.5l0.6-1.3l1.3-7.6l-0.1-1.7l-0.2-1l-1.6-2.7l-0.1-1.5l0.8-1.2l1-1
	l0.6-1v-0.6l-0.8-1.6l-0.1-1.4l6.5-22.5l9.9-14.3l0.6-2l0.2-3.9l0.2-1.3l2.8-6.9l0.9,0.7l4.8,10.4l0.9,1h1.1l8.7,2.3l1.3,0.6
	l7.4,6.9l3.7,2.2l1.6,1.9l1.2,0.5l7.8,1.1h1.4l0.9-0.6l0.8-0.8l3.6-1.9l1.9-0.5l2.2-0.2l1.6,0.4l2,0.8l1.8,1.2l1,1.3l0.6,0.5l1,0.2
	l11.5,0.4l1.9-0.4l9.3-4.4l1-0.8l1-1.1l0.6-1.3l1.6-4.8l1.6-1.2h2.6l7.4,1.8l8.8,4.5l2.3,0.4l0.8-0.3l1.4-0.7l1.3-0.9l0.6-0.8
	l1.1-1.2l2.4,0.2l3.3,0.5l3.9,0.2l6.6-0.9l1.3-0.7l1.1-1.1l0.6-1.1l0.7-1l1.1-0.5l0.8,0.2l0.6,0.7l0.5,1.2l0.3,1.5l-2,4.7l0.4,0.3
	l5.6-1.4l1.5-0.7l1.1-0.2l1.3-0.1l4.7,0.5l0.2,0.5l0.9,2l0.5,3l0.4,1.2l2.8,1.3l14.8,14.8l1.8,2.2l0.3,2.1v1.3l0.1,1.7l0.3,1.5
	l0.5,1l0.9,0.6l1.2,0.2h3.4l7.2-1.3l1.3,0.5l0.6,1.3l0.2,2.1l0.5,2.2l0.8,2.5l0.6,3l-0.1,3.8l-4.9,9l-0.3,2.3l0.5,2.4l2.7,6.9
	l0.7,7.5l0.3,1.5l0.7,1.8l0.9,1.7l1.2,1l0.6,0.1l4.9-0.2l0.3-1.7l2-0.5l8.4,0.3l0.6,1l0.2,1.5l-0.1,1.4l-0.4,1.1l0.1,0.2l6-3.6
	l0.7-0.2l4.8-0.3l2.3-0.3L645.2,417.6L645.2,417.6z"/>
<path id="ETH3110" class="st1" d="M659.8,271.6l-1.1,0.7l0.2,1.5l-0.1,1.8l-0.5,1.1l-0.5,0.6l-0.4,0.3l-1.8,0.2l-5-0.5l-2.7-0.8
	l-1.1-0.2l-4.6,0.9l-2.1,1.3l-1.9,1.5l-0.4,0.6v0.6l1.5,0.8l4.1-0.3l1,0.9l-0.2,0.9l-3,3.3l-1.7,3.5l-0.3,1.3l0.5,0.4l2.1,0.1
	l1.2,0.2l1,0.6l-2.2,2.5l-0.4,0.6l0.5,1.2l1,0.1l1-0.4l0.8-0.2l0.8,0.7l0.5,1.3l0.2,1.4l0.1,1.1l-0.3,2.6v0.9l0.4,0.8l1,0.8l0.4,1.4
	l0.1,4l-1.2,6.4l-0.3,3l0.5,2.5l0.9,2.4l0.6,3.4l-0.3,2.9l-2,1.2l-2.5-1.2l-0.5,0.9l-1.6,5.3v1.7l1.1,2.8l0.2,1.7l-0.2,1.7l-1.3,6.9
	l0.1,0.9l0.7,1.4l1,1.1l1.2,0.7l0.4,0.8l1.1,5.2l0.4,0.7l0.8,1v0.4l-0.3,1.1l-0.8,1.2l-0.8,0.9l-0.9,0.1l0.3,3.2v1.4l-0.3,1.9v1.5
	l-0.7,1.9l0.1,0.3l2,1.7l1,0.5l1.5,0.2l1.4,0.4l1,1l1.7,2.8l0.4,2.2l-0.3,3.2l-0.7,3.1l-1.1,2l-2.3,2.5l-1.4,2.5L646,404l-0.3,3.4
	l0.2,1.1l1,2.1l0.2,1.4v1.6l-0.2,1.6l-0.5,1.3l-1.2,1.1l-2.2,0.6l-2.3,0.3l-4.8,0.3l-0.7,0.2l-6,3.6l-0.1-0.2l0.4-1.1l0.1-1.4
	l-0.2-1.5l-0.6-1l-8.4-0.3l-2,0.5l-0.3,1.7l-4.9,0.2l-0.6-0.1l-1.2-1l-0.9-1.7l-0.7-1.8l-0.3-1.5l-0.7-7.5l-2.7-6.9l-0.5-2.4
	l0.3-2.3l4.9-9l0.1-3.8l-0.6-3l-0.8-2.5l-0.5-2.2l-0.2-2.1l-0.6-1.3l-1.3-0.5l-7.2,1.3h-3.4l-1.2-0.2l-0.9-0.6l-0.5-1l-0.3-1.5
	l-0.1-1.7v-1.3l-0.3-2.1l-1.8-2.2l-14.8-14.8l-2.8-1.3l-0.4-1.2l-0.5-3l-0.9-2l-0.2-0.5l-4.7-0.5l-1.3,0.1l-1.1,0.2l-1.5,0.7
	l-5.6,1.4l-0.4-0.3l2-4.7l-0.3-1.5l-0.5-1.2l-0.6-0.7l-0.8-0.2l-1.1,0.5l-0.7,1l-0.6,1.1l-1.1,1.1l-1.3,0.7l-6.6,0.9l-3.9-0.2
	l-3.3-0.5l-2.4-0.2l-1.1,1.2l-0.6,0.8l-1.3,0.9l-1.4,0.7l-0.8,0.3l-2.3-0.4l-8.8-4.5l-7.4-1.8h-2.6l-1.6,1.2l-1.6,4.8l-0.6,1.3
	l-1,1.1l-1,0.8l-9.3,4.4l-1.9,0.4l-11.5-0.4l-1-0.2l-0.6-0.5l-1-1.3l-1.8-1.2l-2-0.8l-1.6-0.4l-2.2,0.2l-1.9,0.5l-3.6,1.9l-0.8,0.8
	l-0.9,0.6h-1.4l-7.8-1.1l-1.2-0.5l-1.6-1.9l-3.7-2.2l-7.4-6.9l-1.3-0.6l-8.7-2.3h-1.1l-0.9-1l-4.8-10.4l-0.9-0.7l1.2-3l-0.2-3.4
	l-1.1-3.5l-0.4-1.7V305l0.3-1.5l6-18.7h1.3l0.4-1.3l0.9-0.7l1.1-0.3h1.4l0.9-0.2l2.1-1l1.3-0.2h3l0.6-0.2l1.1-0.6l0.6-0.2h4.6
	l2.1,0.3l4.4,1.3l2.2,0.3l0.4,0.2l1.2,1.7l1,0.7l1.3,0.2l0.4-0.1l0.9-0.8h0.6l1.2,0.1l0.5-0.1l0.8-0.6l0.8-0.8l0.5-1.2l0.1-1.4
	l0.1-1.7l0.2-1.4l0.6-1.3l1-1.5l1.9-1.5l2.3-0.5l4.9,0.1l1.4-0.5l1-0.1l1.6,1.4l1.2,0.7l2.6,3.7l1,1l0.2,0.6l0.1,1v1.6l0.2,0.7
	l0.9,0.5l2.7,2.3l0.3,0.4l0.5,1.3l0.4,1.7l0.4,0.8l1.5,0.5l0.7,0.3l0.5,0.5l0.2,0.7l0.1,1.7l0.3,1.2l0.7,0.8l1.2,0.8l0.7-0.8l6.2-15
	l12.8-30.9l2.8-6.6l1.1,1l0.8,1.2l1.3,2.5l0.3,0.3l0.6,0.1l0.3,0.2v1l0.4,1.2l0.3,0.3l0.8,0.1l0.6,0.5l0.2,1.2l0.4,0.6l0.5,0.5
	l7.3,3l1.2,0.2l3.7-0.7l1.6,0.1l1.1,0.5l0.6,0.8l0.6,1.4l0.3,1.9l0.3,0.6l0.7,0.6l1.4,1l0.5,0.9l0.6,2.6l0.5,1.2l0.8,1l1.1,0.9
	l3.5,1.9l0.6,0.5l0.4,1.5l0.4,0.6l0.8,0.6l0.6,0.1l0.5-0.2l3.3,0.1l5.1-0.6l2.5-0.7l4.1-2.1h1.3l1.2,0.4l1.2,0.1l1.2-0.1l1.3-0.3
	l4-1.6l2.9-0.3l1.3-0.9l2.2-2l2.7-1.3l1.4-0.9l1-1.2l0.2-1.3l-0.2-1.3l0.2-1.1l0.8-0.9l0.1,0.3l2.4,0.2l1.9,0.5l0.7,0.3l1.4,0.9
	l1.3,1.2l1.2,1.4l0.9,1.5l1.9,5.7l1.4,2.6l1.7-0.1l1.4-2.3l0.9-0.8l1.7-0.3l3.6,0.6l1.3-0.1l5.4-1.5l2.7-1.3l1.2-1.6l0.6-1.4h1.1
	l1.3,0.7l1,0.9l1.4,1.7l0.8,0.5l3.4,1.1l1.8,0.1l3.8-0.6l2.1-0.1l2,0.7l1.9,1.2l3.5,3l1,0.5l1.2,0.2l1.3-0.4l2.1-1.7l1.2-0.3
	L659.8,271.6L659.8,271.6z"/>
<path id="ETH3111" class="st0" d="M777.5,508.4l-0.8,0.4l-1.1,0.7l-1.2,0.5l-2,0.2l-26.5-0.2l-1.5,0.4l-1.3,1.4l-0.5,1.7l-0.3,1.9
	l-0.4,1.7l-1.9,3.1l-5.1,5.1l-2.3,2.8l-0.6,1.4l-0.2,1.3l0.4,2.8v1.9l-9.6,36.8l0.1,1.7l0.5,1.7l1.1,1l3,1.2l0.6,0.9l-1,1.5
	l-8.4,7.3l-3.7,4.2l-5.9,9.2l-1,2.5l-1.2,4.9l-0.6,4.7l-1.7,1.8l-1.8,1l-2.1,0.5l-5.5,0.9l-2.3,1l-2,1.6l-2.1,2.2l-1.8,2.2l-4.5,7.4
	l-0.9,1.2l-4.2,4.1l-0.5,1l-0.2,1l-0.1,1.5l-0.8,2.2l-1.5,1.3l-1.7,1.1l-2.2,0.2l-2.4,4.2l-1.3,1.4l-4.1,2.8l-0.8-0.3l-0.4-1.5
	l1.6-4.4v-3l-1.2-1.3l-2.2-0.4l-2.9-0.1l0.2-1.3l-0.3-0.7l-0.6-0.6l-0.6-0.8l-0.3-1.2l-0.5-3l-0.5-1.1l-1.3-0.7h-1.8l-3.6,0.4
	l1.6-2.6l2.2-3l1.8-3.1l0.1-3.2l-2.4-1.9l-0.9-0.4l-1.8-0.5l-0.7-0.3l-0.9-1.1l0.2-1l0.9-1.1l1.4-1l2.4-2.4l1.3-3.1l0.4-3.4
	l-0.1-3.5l-2.5-6.4L650,593l2.7-0.7l5.6,1.6h2.6l0.9-1.9l-0.3-0.8l-0.8-1.5v-0.9l1.8-2.4l0.6-1.3l1.9-2.7l0.5-1.4l0.1-2.6L665,577
	l-1.4-1l-2-1.2l-1.5-1.1l-0.8-1.2l-0.1-1.4l0.7-1.7l1.1-0.9l1.6-0.4l1.6,0.1l1.4,0.2l1.5,0.4l1,0.1l0.5-0.4l0.1-1.4l-0.2-1.8
	l-0.4-1.8l-0.2-1.7l0.2-1.9l1.3-3.1l0.2-1.3l0.7-8.5l0.3-1.4l0.8-1.4l0.3-1.3l-0.1-0.9l-1.5-4.9v-1.7l0.7-3.3v-1.5l-0.4-0.8
	l-2.1-2.6l-0.8-1.8v-1.5l0.5-1.5l2-3.4l0.7-1.8l0.1-1.8l-0.7-1.8l-1.7-1.9l3.8-5.7l0.4-1l0.3-1.2v-1.2l-0.3-2.4l-0.2-3.2l-0.4-1.8
	l-0.7-1.8l-2.7-4.9l-1-1.3l-1.2-1.2l-2.1-2.2l0.2-2v-2l-0.6-3.7l-0.6-1.6l-2.8-4.7l-0.6-1.5l-0.5-3.5l-0.4-1.5l-0.5-0.7l-1.5-0.7
	l-1.4-1.2l-1.2-1.4l-2.3-4.3l-0.5-1.3v-1.9l0.5-6.6l-0.1-0.3l-1.6-1l-0.9-1.1l-0.4-0.9l-0.4-1l-0.1-0.9l0.1-2l-0.2-1l-0.2-1.1
	l-0.4-0.9l-1.3-1.8v-0.8l0.1-0.9v-1l-0.5-1.8l-1.7-3.5l-0.5-2v-1.7l0.1-0.7l1.1-3.2l1.2-1.1l0.5-1.3l0.2-1.6V412l-0.2-1.4l-1-2.1
	l-0.2-1.1l0.3-3.4l0.8-2.9l1.4-2.5l2.3-2.5l1.1-2l0.7-3.1l0.3-3.2l-0.4-2.2l-1.7-2.8l-1-1l-1.4-0.4l-1.5-0.2l-1-0.5l-2-1.7l-0.1-0.3
	l0.7-1.9v-1.5l0.3-1.9V372l-0.3-3.2l0.9-0.1l0.8-0.9l0.8-1.2l0.3-1.1v-0.4l-0.8-1l-0.4-0.7l-1.1-5.2l-0.4-0.8l-1.2-0.7l-1-1.1
	l-0.7-1.4l-0.1-0.9l1.3-6.9l0.2-1.7l-0.2-1.7l-1.1-2.8v-1.7l1.6-5.3l0.5-0.9l2.5,1.2l2-1.2l0.3-2.9l-0.6-3.4l-0.9-2.4l-0.5-2.5
	l0.3-3l1.2-6.4l-0.1-4l-0.4-1.4l-1-0.8l-0.4-0.8v-0.9l0.3-2.6l-0.1-1.1l-0.2-1.4l-0.5-1.3l-0.8-0.7l-0.8,0.2l-1,0.4l-1-0.1l-0.5-1.2
	l0.4-0.6l2.2-2.5l-1-0.6l-1.2-0.2l-2.1-0.1l-0.5-0.4l0.3-1.3l1.7-3.5l3-3.3l0.2-0.9l-1-0.9l-4.1,0.3l-1.5-0.8v-0.6l0.4-0.6l1.9-1.5
	l2.1-1.3l4.6-0.9l1.1,0.2l2.7,0.8l5,0.5l1.8-0.2l0.4-0.3l0.5-0.6l0.5-1.1l0.1-1.8l-0.2-1.5l1.1-0.7l1.6,0.3h0.9l3.3-1h1.2l6,1.5
	l2.9,1.1l2.6,1.6l9.6,9l3.9,2l7.1,3.4l1.8,0.7l6,0.8l4.6,1.7l4,2.9l14,16.1l9.9,17.6l2,2l20.6,13.2l12,10l2.6,2.7l2.3,3l2.1,3.5
	L786,375l3.4,4.9l5.2,3.4l3.8,1.6l3.7,2.1l3.2,2.7l4.4,7.5l5.4,7.4l3.2,3.4l-4,5.4l-2.1,4.4l-8.8,12.2l-1.1,2.5l-0.5,0.9l-1.6,0.7
	l-0.7,0.8l-2.7,5.1l-8,11.5l-0.8,0.7l-0.9,0.7l-0.9,0.5l-0.8,0.2l-0.5,0.4l-0.4,1l-0.7,0.9l-2.6,1.1l-1,0.7l-1,2.1l-0.9,5.2l-2,6.2
	v3.7l1.8,7.8l0.6,5.8l-0.8-0.4l-1.9,0.2l-1.6,1l-1.2,1.5l-1,1.7l-0.5,2.8l1.1,3l2.3,2.5l2.7,1.5l0.9-0.7v1.6l-0.4,2.9l-1.2,1.9
	L777.5,508.4L777.5,508.4z"/>
<path id="ETH3129" class="st0" d="M436.7,949.7l-0.4-0.1l-1-0.5l-0.5-0.2l-22.8,0.5l-0.9-0.1l-1.2-0.6l-0.6-0.2h-0.8l-2.2,0.3
	l-10,0.1l-1.6-0.4l-1.4-0.9l-2.6-2.2l-1.1-0.8l-0.5-0.9v-1.2l0.2-1.3v-1.3l-0.9-1.6l-0.2-1.1l-9-9.7l-1.7-2.8l-0.5-3.3l0.3-13.9
	l0.3-0.9l2.6-3.2l0.5-1.4v-1.4l-0.6-1.6l-1.3-2.5l-0.2-1.3l0.4-1.6l1.8-2.6l-0.3-0.6l-3.7-1.4l-4.3-2.7l-1.7-0.5l-1.3,0.3l-1.2,0.6
	l-1.5,0.3l-1.7-0.4l-2.8-2.3l-1.5-0.9l-1.2-0.3l-1.4-0.2h-1.4l-1.2,0.2l-1.5,1l-2.7,3l-1.5,1l-1.6,0.3l-1.2-0.6l-1-1.1l-2.2-3.5
	l-0.3-0.6l0.1-0.8l1.1-1.5l0.4-0.7l-0.8-2.2l-2.6-2l-5.3-3.2l-3-2.2l-0.7-1.2l-0.6-3.9l-0.9-1.8l-5.4-7.7l-0.7-1.5l-0.1-0.9l0.5-2.4
	l-0.2-0.8l-1.1-1.1l-0.3-0.8v-0.7l0.2-0.8l0.7-1.4l-0.7-4.4l-0.5-1.3l-1.1-1.4l-1.3-1.2l-1.1-1.2l-1.3-3.3l-2.3-4.1l-0.3-1.4
	l-0.1-3.9l-0.4-1.7l-2.7-4.6l-0.5-1.4l-0.6-3.8l-1.4-3.9l-1.4-5.4l-0.5-0.3l-0.8-0.9l-0.3-1.2l-0.4-0.8l-4.5-3l-1.2-0.4l-1.4-0.2
	h-2.9l-1.1-0.3l-0.8-0.6l-0.5-2.8l-0.4-1.4l0.9-0.6l-0.1-1.4l-0.3-1.1l-0.4-1.1l-0.6-0.8l-4.3-3l-9.4-2.3l-1.1-0.8l-0.4-1.1
	l-0.3-0.4l-2.7-2.1l-1.1-1.2l-0.5-0.2l-0.5-0.6l-0.2-2.3l1.5-0.6l1.9,1.1l2,1.7l1.5,1.1l1.7,0.2l1.7-0.5l3.3-1.3l2.4-0.5h2.6
	l2.5,0.6l2,1.3l1.8,1.4l1.9,0.9l2.1,0.4l2.2-0.1l2.1-0.4l1.5-0.6l1.4-1l1.7-1.5l1.9-1.5l1.9-0.8l2-0.4l2.4-0.1l4,0.2l1.8-0.6
	l0.8-1.6l1.3,0.5l1.6-0.3l1.4-0.9l1-1.2l1.1,1.2l1.7,0.9l1.7,0.8l1.6,0.4l1.7-0.1l2.8-1.3l1.6-0.3l3.8,0.8l1.6-0.2l0.5-1.6l-0.2-0.6
	l-0.6-1.2l-0.2-0.7l0.1-0.7l0.2-1.4l0.2-1.6l0.8-1.8v-0.9v-0.9l0.1-0.9l1.3-4.6l0.2-1.5l-0.5-1.3l-1.1-1.1l-4.6-2.5l-0.6-0.8l0.6-2
	l-0.6-1.3l-1.3-5.9l-0.1-3.3l0.9-1.9l1.2-0.9l1.7-2.4l2.7-1.7l0.3-1.3v-1.5l0.8-1.4l0.4-0.2l1.2,0.1l0.7-0.2l1.6-1.1l1.5-1.1h1
	l1.1,0.1l1.4-0.4h2.8l0.8,1.6l0.4,1.3l0.7,1.1l1.7,0.8l1.5-0.1l1.4-0.6l2.6-1.7l0.9-0.4l1.3-0.5l2.2-0.4l0.5-0.2l1-0.7l1.4-1.2
	l1.1-1.4l0.5-1.1l-0.5-1.1l-1-0.9l-2.3-1.6l-1.2-1.3l0.1-1.3l1.5-2.3l1-1.1l1.4-0.4l1.6-0.1l1.5,0.2l1.5,0.3l0.9,0.7l0.5,1.1
	l1.8,6.3l0.1,1.6l-0.5,1.5l-0.8,1.3l-1.9,2.4v1.2l1.3,1.3l4.1,2.5l2.2,1l1,0.6l0.8,1l1.6,3.3l1.5,2.4l0.1,1l-0.4,1.8l-0.1,1.8
	l0.5,1.3l1.1,0.8l5.2,0.7l2.6,1.6l2.4,1.9l3,1.5l4,1.5l1.5,0.2l0.5,0.2l1.2,0.8l0.9,0.4l2.4,0.8h0.6h2.9l1.3,0.2l1.5,0.5l5.2,2.2
	h1.3l11.4,7.6l2.9,1.3l3,0.8l3.1,0.3l2.4-0.2l4.8-0.8l5.3,0.3l2.2-0.4l1.9-1.1l4.4-3.4l6.6-3l2.2-1.4l0.8,0.3l0.2-0.3l0.9-2.1l0.3-3
	l0.4-1.4l0.3-0.5l1.8-7v-0.9l-1.6-5.1l-0.5-2.6v-6.9l0.2-1.2l0.4-1.3l1.2-2.3l0.3-1.2l-0.4-1.9l-2.4-2.7v-1.8l4-1.2l2.2-0.2l1.7,0.7
	l1.3,2.8l1,0.7l1.4,0.2l1.3-0.3l1.9-0.5l0.1-0.8v-1l-0.4-1.2l-1.1-2.1l-0.3-1.3l0.1-4.9l0.8-5.8l-0.1-0.8l-0.6-0.4l-4.9-1.2
	l-1.1-0.5l-1.1-0.7l-0.7-0.9l-0.3-1.2l-0.4-0.6l0.3-1.9l1.2-2.9l0.8-1.3l1-1.1l1.4-0.7h1.5l1.3,1.2l0.9,1.8l0.9,1.3h1.4l4.5,0.6
	l1.3,0.7h0.9l1-0.3l1.5-0.1l4.5,1l1.7-0.1l12.6-3.1l9.1-1.1l3.6-0.9l1.4,0.3l1.1,0.7l1,1l0.5,0.9l0.4,1.5l0.3,2.8l1,2.5l2.4,0.4
	l2.8-0.9l2-1.7l0.6-1.1l0.8-4.3l0.5-1.1l1-1.4l1.4-1.6l0.4-0.2l1.3-0.4l1.5-0.3l1.4,0.1l1.1,1l4.2,2l0.8,1.3l0.6,1.5l0.2,1.5
	l-0.7,3.3l0.3,1.2l0.8,0.9l1.6,1.1l-1.1,4.5l-0.1,1.6l0.3,1.6l-0.1,1.5l-0.6,1.4l-1.7-1.9l-0.7-1l-0.6-1.1l-1.2-5.4l-0.6-1.4
	l-3.9,1.3l0.4,1.4l2.1,2.9l0.5,1.7l0.2,0.9l0.7,2.4l1,5.1l-0.2,0.7l-0.6,1.3l-0.9,2.7l-2.2,3.6l-2.9,3.6l-1.5,2.7l-2.4,2.4l-0.6,1.2
	l-0.4,1.4l-1.2,2.5l-0.2,1.2l-0.2,3.2l0.7,5v1.7l-0.6,0.9l-1.1,0.5l-1.5,0.5l-1.7,0.7l-0.9,0.9l-0.5,1l-0.5,1.6l-0.8,1.4l-1.8,2.1
	l-0.6,1.4l-0.6,2.7l-0.7,1l-9.2,5.7l-1.8,1.6l-1,2.1l-0.5,2.3l-0.2,2.5l0.4,1.3l1.1,1.2l1.8,0.9l2.3,0.6l6.1-1.3l1.1-0.8l2.7-3.2
	l0.6-1l1.3-2.1l1.7,0.6l2.1,1.3l2.6,0.5l1.9,0.5l2.1,1.4l2.3,0.9l2.2-1l1.7-0.3l2.2,1.7l2,3.2l1.5,3.9l-1.9,10.1l0.2,2.3l0.5,0.8
	l1.1,0.9l1.2,0.7l2.3,0.7l8.7,4.5l1.1,0.2l3.2,0.3l1.7,0.4l1,0.9l0.7,0.9l2.6,1.7l5,4.6l1.1,1.2l0.3,1.2l0.4,3l1.6,6.1v3l-0.7,1.5
	l-1,1.2l-0.7,1.3l0.2,1.6l1.1,2.9l0.6,1.3l1,1.1l-6.6,0.9l-2.9-0.2l-3.2-2.8v-0.5l-0.4-1.5l-1.3-2l-1.9-3.5l-1.6-1.9l-0.3-0.6
	l-5.1-2.4l-0.5-0.6l-0.9-1.7l-2.4,0.3h-1.8l-0.5-0.1l-5-1.5l-2.7-0.5l-2.7-0.1l-3.3,0.6l-2.4,1.3l-1.3,2.3l-0.4,3.3l0.8,5.7l-0.2,2
	l-0.7,1l-1.2,0.7l-1.5,1.1l-0.8,1.2l-0.8,2.7l-2.3,4.1l-0.8,1.2l-1.2,1.1l-0.2,0.5l0.4,0.7l1.8,1.8l3.9,2.2l0.7,0.7l-0.2,0.8
	l-4.8,3.2l-1.4,0.3h-1.4l-1.4,0.3l-1.5-0.2l-1.3-1.7l-8.2-14.4l-0.3-1.4l0.1-1.8l0.5-1.5h1l1.4,0.7l1.5,0.2l1.4-0.5l1.1-1.5l0.2-1.6
	l-1.2-2.6l0.1-1.4l1.1-2.5l0.7-1l4.3-1.6l1.7-2.4l-0.1-2.8l-2.4-2.2l-1.2-0.3l-1.3,0.1l-1.4,0.2l-1.4,0.4l-0.8-0.1l-1.7-2l-1.2-1.1
	l-2.8-1.7l-0.7-0.3l-1.3-0.7l-0.9-1.1l-1.1-1l-1.4-0.2l-1.7,0.6l-0.8,0.1l-2.2-0.1l-0.3-0.2l-1.5-1.3l-1.2,0.1l-1.1,1l-3.1,4.4
	l-1.3,2.9l0.2,2.8l2.2,2.6l1.3,2.5l-0.3,3.5l-1.1,3.5l-1.3,2.5l-1.8,2.7L512,835l-0.1,1.6l0.7,4.9l-0.1,1.7l0.5,1l1.5,0.4l2.2,0.5
	l6.7,2.8l1.4,0.7l0.6,1.1l0.4,1.7l1.3,2.8l0.6,3.2l0.7,1.4l1.1,1.1l1.6,0.5l1.2,0.8l0.5,1.6l-0.3,1.7l-1,1l-4.2,2.2l-3.2,0.6
	l-1.1,0.8l-0.5,1.2l1,4.6v3.5l-0.6,3.4l-1.2,2.9l-0.9,1.6l-0.5,1.3l-0.1,1.4l0.4,3.2l-0.1,1.5l-0.4,1.3l-1,0.9l-1.6,0.1l-1.4-0.8
	l-1.2-1.1l-1.2-0.8l-3.2-0.9l-3.2-1.3l-1.5-0.3l-1.4,0.3l-1.1,0.8l-0.8,1.2l-0.9,0.9l-1.6,0.7l-3,1.1l-6.5,3.5l-3.5,1.4l-3.5,0.2
	l-1.6-0.6l-2.8-1.6l-1.7-0.5l-2-0.2l-1.1,0.1L468,899h-1.6l-5.1-0.8l-1.6,0.2l-1.5,0.9l-2,2.3l-1.4,2.9l-3.1,9.9v1.5l0.4,1.8
	l1.5,3.2l0.4,1.8l-0.4,3.8l-1.7,3.5l-4.8,6.2l-3.2,4.9l-1.2,2.7l-1,2.7l-0.6,0.8l-1.3,0.9l-2.3,0.8L436.7,949.7L436.7,949.7z"/>
<path id="ETH3130" class="st0" d="M344.5,741.4l0.6,1.3l-0.6,2l0.6,0.8l4.6,2.5l1.1,1.1l0.5,1.3l-0.2,1.5l-1.3,4.6l-0.1,0.9v0.9v0.9
	l-0.8,1.8l-0.2,1.6l-0.2,1.4l-0.1,0.7l0.2,0.7l0.6,1.2l0.2,0.6l-0.5,1.6l-1.6,0.2l-3.8-0.8l-1.6,0.3l-2.8,1.3l-1.7,0.1l-1.6-0.4
	l-1.7-0.8l-1.7-0.9l-1.1-1.2l-1,1.2l-1.4,0.9l-1.6,0.3l-1.3-0.5l-0.8,1.6l-1.8,0.6l-4-0.2l-2.4,0.1l-2,0.4l-1.9,0.8l-1.9,1.5
	l-1.7,1.5l-1.4,1l-1.5,0.6l-2.1,0.4l-2.2,0.1l-2.1-0.4l-1.9-0.9l-1.8-1.4l-2-1.3l-2.5-0.6h-2.6l-2.4,0.5l-3.3,1.3l-1.7,0.5l-1.7-0.2
	l-1.5-1.1l-2-1.7l-1.9-1.1l-1.5,0.6V769l-0.3-1.4l-0.7-1.1l-0.9-0.6l-1.1,0.5l-1.2,0.3l-1.3-0.9l-1.8-2.3l-3.1-2.4l-0.6-0.6v-6.2
	l-0.5-2.3l-1.1-1.9l-8.3-8.4l-2-1.2l-2-0.3l-0.7-0.2l-3.3-2.5l-2.2-3l-0.8-1l-0.7-0.3l-2.1-0.6l-1.8-1.2l-0.7-0.2l-4.3,0.4l-1.4-0.4
	l-0.7-0.5l-1-1.2l-0.6-0.6l-0.7-0.3l-1.2-0.4l-0.6-0.5l-1.1-0.4l-1.8,0.1L220,728l-0.6,0.3l-1.7,1l-0.8,0.1l-3.7-1l-1.2-1.1
	l-1.1-1.2l-1-0.9l-0.5-0.2l-2.2-0.3l-1.9-0.8l-0.6-0.1l-2.1,0.5l-0.4,0.2l-0.4,0.5l-0.9-0.1l-1.4-0.6l-1.8-0.2l-0.5-0.3l-0.7-1.6
	l-1.2-0.6l-0.5-1.1l-1.7-4.5l0.3-0.7l0.8-1l0.4-0.7l0.6-0.8l0.3-1.4l0.4-0.7l0.8-1.1l3.8-3.9l1.1-2.2l2-0.4l1.2-0.5l0.8-0.7l0.5-0.9
	l0.2-1.4l-0.2-0.3l-0.9-0.7l-0.2-0.3l0.1-1.7l0.8-1.3l0.6-0.5l1.1-0.5v-0.9l-1.5-0.7l-0.4-0.8l-1-1.1l-0.2-0.8l0.1-0.5l0.6-1.3
	l0.2-0.8l-0.7-0.7l-0.1-0.6l0.4-0.7v-1.2l0.4-1l0.9-0.4l1-0.2l0.5-0.5l-0.3-0.6l1.9-1.7l1.2-0.2l7.2,1.6l0.7-0.2l0.9-0.7l1-0.3
	l0.9,0.2l4.5-0.6l0.6-0.3l-0.3-0.8h1.3l1.1,0.6l1,0.8l1,0.5l1.3-0.2l1-0.6l0.9-0.4l1.4,0.2l2.1,1.8l1.3,2.3l1.6,1.9l3,0.3l1-0.2
	l2.8-2.3l0.7-0.5l1-0.5l1.2-0.3l2.2-0.3h3.8l1.3-0.3l1.3-0.8l6.6-6l1.4-1.5l0.8-1.6l0.3-1.4l1.6,0.8l1.2,1.2l0.8,0.6l0.8-0.2
	l3.2-2.3l1.6-0.6l1.7,0.2l2,0.9l3.4,2.3l5.8,5.6l3.3,2.6l6.7,3.4l1.9,1.6l2.4,3.5l1.4,1.4l2,0.9l3.9,0.8l1.3,1l1.1,2.1l1.2,1.7
	l1.8,0.8h2.1l4.8-0.8l3.8-0.1l3.6,0.4l2.1,1.5l-0.6,1l-1.6,0.8l-3.4,1.1l-4,2.3l-3,1.3l-0.6,0.8l0.6,0.7l3.2,1.1l0.4,0.7l-0.4,0.8
	l-4.2,6l-1.1,2.8l0.1,3.2l1.4,2.9l2.1,2l2.4,1.9l2.2,2.2l0.7,1.4l0.4,3.2l0.5,1.4l1,0.8l6.7,2.4l0.9,0.8l-0.5,1.1l-0.9,0.8l-1.1,1.3
	l-0.3,1.1l1.2,0.5l2,0.1l0.9,0.2l1.6,0.7l0.4-0.2l1.1-0.8l1.3-0.7l1.4-0.9l0.8-1.2L344.5,741.4L344.5,741.4z"/>
<linearGradient id="ETH3131_00000171709297818946566190000002419197736168002726_" gradientUnits="userSpaceOnUse" x1="398.1531" y1="554.7816" x2="824.6878" y2="959.5182">
	<stop  offset="0.2116" style="stop-color:#C251F0"/>
	<stop  offset="0.2256" style="stop-color:#C851D9"/>
	<stop  offset="0.2792" style="stop-color:#DD5284"/>
	<stop  offset="0.3171" style="stop-color:#EB534F"/>
	<stop  offset="0.3354" style="stop-color:#F0533A"/>
</linearGradient>
<path id="ETH3131" style="fill:url(#ETH3131_00000171709297818946566190000002419197736168002726_);stroke:#FFFFFF;stroke-width:2;stroke-linecap:round;stroke-linejoin:round;" d="
	M386.6,711.3l-0.6-2l-0.6-2.2l-0.5-1.1l-0.9-0.7l-1.5-0.3l-1.5-0.2l-1.6,0.1l-1.4,0.4l-1,1.1l-1.5,2.3l-0.1,1.3l1.2,1.3l2.3,1.6
	l1,0.9l0.5,1.1l-0.5,1.1l-1.1,1.4l-1.4,1.2l-1,0.7l-0.5,0.2l-2.2,0.4l-1.3,0.5l-0.9,0.4l-2.6,1.7l-1.4,0.6l-1.5,0.1l-1.7-0.8
	l-0.7-1.1l-0.4-1.3l-0.8-1.6h-2.8l-1.4,0.4l-1.1-0.1h-1l-1.5,1.1l-1.6,1.1l-0.7,0.2l-1.2-0.1l-0.4,0.2l-0.8,1.4v1.5l-0.3,1.3
	l-2.7,1.7l-1.7,2.4l-1.2,0.9l-0.9,1.9l0.1,3.3l1.3,5.9l0.1,1.5l-0.8,1.2l-1.4,0.9l-1.3,0.7l-1.1,0.8l-0.4,0.2L338,746l-0.9-0.2
	l-2-0.1l-1.2-0.5l0.3-1.1l1.1-1.3l0.9-0.8l0.5-1.1l-0.9-0.8l-6.7-2.4l-1-0.8l-0.5-1.4l-0.4-3.2l-0.7-1.4l-2.2-2.2l-2.4-1.9l-2.1-2
	l-1.4-2.9l-0.1-3.2l1.1-2.8l4.2-6l0.4-0.8l-0.4-0.7l-3.2-1.1l-0.6-0.7l0.6-0.8l3-1.3l4-2.3l3.4-1.1l1.6-0.8l0.6-1l-2.1-1.5l-3.6-0.4
	l-3.8,0.1l-4.8,0.8h-2.1l-1.8-0.8l-1.2-1.7l-1.1-2.1l-1.3-1l-3.9-0.8l-2-0.9l-1.4-1.4l-2.4-3.5l-1.9-1.6l-6.7-3.4l-3.3-2.6l-5.8-5.6
	l-3.4-2.3l-2-0.9l-1.7-0.2l-1.6,0.6l-3.2,2.3l-0.8,0.2l-0.8-0.6l-1.2-1.2l-1.6-0.8l0.3-1.7l-1.9-39.1l3.1,0.1l12.4,1.1l1.9-0.2
	l1.3-0.9l0.9-1.2l0.7-1.2l0.6-1.2l0.5-1.6l2.6-11.7l1.4-12.5l1.6-1h1.5l2.5-0.4l1.2,0.2l1.5,1.1l3.1,2.7l1.7,0.9l2.1-0.3l7.5-8.1
	l2.5-4.7l3.9-12.3l-0.5-1l-1-1l-0.6-1.6l0.3-0.6l8.5,0.6l1.1,0.4l0.4,0.7l-0.1,1.7l0.1,1.6l0.7,1.1l1.7,0.1l5.2-0.8l2.2,0.1l3.1,0.5
	h1.3l1.3,0.2l1.4,0.8l2.5,1.9l13.4,13.4l9.1,11.1l3.3,3.4l2.8-0.5l0.9,0.1l0.9,1.2l1.3,2.9l0.2,0.8l-0.1,3.8l0.7,0.8l0.8,0.4
	l0.8,0.1l2-0.1l2.6,0.2l1.3-0.1l0.6,0.3l0.5,0.9l0.6,1.3l2.4,4.2l0.6,0.8l0.8,0.1l2.1-0.2l1.1,1.3l0.9,4.2l1.5,0.6l9.7-12.7l1.9-5.5
	l0.8-4.8l-0.4-3.7l-2-2l-1.1-0.8l-4.5-5.3l-2.1-1.8l0.1-0.3l1.3-1l0.6-1.1l-0.1-1.4l-0.7-1.6l-0.4-1.4l0.4-6.4L402,572h0.8l1.2,0.9
	l1.3-0.1l1.3-0.5l2.7-1.5l5.9-4.3l2.2-2.5l3.5-5.8l1-1.2l2.5-2.6l1.2-1l1.4-0.6l4.1-0.4l0.4,0.2l-2.3,6.6L429,560l0.4,0.4l1.2,0.4
	l1.1,0.5l1.1,0.3l1.4-0.3l1.5-3l0.9-0.7l5.8-3l1.2,0.1l2.9,1.8l3.6,1.5l1.4,1.1l6.9,2.1l1.3,0.1l0.8-0.4l0.7-0.9l0.7-1.3l1.3-3.7
	l1.9,1.6l1.3,0.7l1.3,0.5h4.5l1,0.5l0.2,1.8l-1,2l-0.8,2l0.9,2.3l1.6,1.7l1,0.4l1.2-0.2h0.9l1.1,0.3l1.1,0.5l0.5,0.7l0.1,0.8v1.5
	l0.3,0.8l0.8,1.1l0.5,0.4l0.7-0.1l0.7-0.8l0.6-1.9l1-0.3l2.3,0.3l2.2,0.6l6.4,2.9l0.9,0.7l1.4,1.9l1.5,1.8l0.4,0.8l1,1.2l6.2,4.6
	h1.1l1.8-1l1-0.2l1.7,0.3l0.6-0.2l4.7-2.6l0.6-0.6l1-1.3l0.5-0.3l1.8-0.2l0.6-0.2l3.1-2.2l9.5-4.5l4-1l1.1-0.7l1.7-1.7l0.6-1.4
	l0.8-0.7l1.9-0.4l1.8-0.6l1.3-0.2l1.7,0.5h1.6l1.7-0.3l1.5-0.7l0.9-1.3l0.2-0.8l-0.1-0.7l-0.5-1.4v-0.9l0.3-0.4l0.7-0.3l0.5-0.5
	l0.5-0.7l1.7-7.3l0.4-0.7l0.6-0.5l15.6-0.8l7.7,1.4l1.2,0.9l-0.1,2.5l-2.9,13.6l-0.8,1l-4.4,2.3l-2.6,0.6l-2.6-0.5l0.1,2l1.3,1.2
	l4.2,1.6l1.2,0.9l0.8,0.7l1.2,1.8l0.2,0.4l0.1,3.4l0.5,3.3l1.1,3.1l2.2,2.7l4.3,2.1l12.1,2.5l7.7,3.4l3.2,4.7l2.4,4.3l2.2,2.8
	l2.4,0.5l1.5-0.1l2,0.4l1.4,0.8l-0.2,1.6l0.4,0.6l3.9,4.1H627l-2.3-0.8l-1.7,0.3l-3.3,2.4l-0.9,0.4l-5.7,0.4l-1.6-0.1l-1.1,0.1
	l-0.4,0.6l0.2,1.9l0.6,2.5l0.9,2.2l1.4,1.1l3.5,0.7l1.4,1.1l0.2,2l-0.8,2.2l-5.7,9.3l0.2,3.9l-0.2,1.3l0.1,1.1l1.7,3.7l0.5,0.7
	l0.8,0.6l1.2,0.3l1.5-0.1l3.4-3.4l1-0.4l2,0.7l2.4,3.7l1.7,0.9l1.4-0.3l3.2-2.3l2.3-1.4l6.8-2.4l2.1-1.3l0.7-2l-0.2-13.7l2.9-2.4
	l0,0l3.6-0.4h1.8l1.3,0.7l0.5,1.1l0.5,3l0.3,1.2l0.6,0.8l0.6,0.6l0.3,0.7l-0.2,1.3l2.9,0.1l2.2,0.4l1.2,1.3v3l-1.6,4.4l0.4,1.5
	l0.8,0.3l4.1-2.8l1.3-1.4l2.4-4.2l2.2-0.2l1.7-1.1l1.5-1.3l0.8-2.2l0.1-1.5l0.2-1l0.5-1l4.2-4.1l0.9-1.2l4.5-7.4l1.8-2.2l2.1-2.2
	l2-1.6l2.3-1l5.5-0.9l2.1-0.5l1.8-1l1.7-1.8l0.6-0.3l0.8,0.1h3.7l3.3-0.7h3.1l3.1,1.9l0.7,1.4l-0.9,0.9l-1.7,0.4l-1.7,0.1l-2.9-0.6
	l-1.2,0.1l-0.3,1.4l0.4,1.7l0.6,1.4l1,1l1.5,0.5l1.4-0.1l1.7-0.4l2.9-1l2.1-1.4l0.7-0.3l0.7-0.2l1.5-0.1l0.6-0.4l1.2-1l1.3-0.9
	l1.4-0.7l3.2-1.2l1.5-0.7l1.5-0.9l1.4-1.2l1.8-1.9l0.7-0.4l2.6-0.7l2.8,0.1l5.5,1.1l5.1,1.8l1.5,0.1l1.2-0.6l2.3-2l1.3-0.7l1.6-0.4
	l1.7-0.2l1.5,0.3l0.8,0.9l1,1.4l1.4,0.6l1.7,0.2l1.7-0.4l2.1-1l1.9,0.2l1.9,0.3l2.1-0.4l0.8-0.1l1.9,0.6l0.8,0.2l1.6-0.2l3.7-1.7
	h1.8l4,2l1.2-1.5l1.9-1.5l1.6-1.5l0.3-1.6l-1.3-2.1l-0.2-0.8l0.3-0.6l0.9-0.7l2-1.1l1.6-0.6l3.4-0.2l1.1-0.6l1.1-1l2.4-2.1l1.3-0.7
	l2.7,0.8l0.8,2.9l-0.4,6.6l2.1,0.5l2.4,2.4l2.2,3.1l4.2,8.6l0.2,0.6l0.1,1.6l0.2,1l2.2,6.4l0.8,1.3l1.2,1.3l0.3,0.5l-0.2,1.8
	l0.2,1.2l1.2,2.7l4.1,6.5l4.6,5.1l1.3,1.2l2.9,2.2l1.3,1.1l0.5,2.8l-2.1,6.2l0.7,3.1l3.4,3.5l0.7,1.3l0.4,1.7l0.2,1.8l-0.1,1.9
	l-0.6,3.2l-0.1,1.8l-0.4,1.6l-1.1,0.9l-5.9,1.5l-1.4,0.8l-1.8,2.5l-2.6,9.8l-2.4,2.8l-2.2-0.5l-2.1-2.4l-1.6-3.2l-1.1-3.5l-2-11.3
	l-2-2.8l-3.8-1.6l-7.9-1.5l-0.9-0.9l-2.6-4.8l-4.5,1.2l-6.3,5.4l-2.8,2.9l-2.5,3.3l-0.5,1.6l0.4,3.9l-0.1,1.8l-0.9,1.8l-3.7,5.3
	l-1.3,3.2l-0.7,3.8l-0.9,16.3l0.2,1.7l0.7,1.6l1.1,1.9l0.4,3l-1.1,3.8l-3.1,6.8l-0.9,2.8l-0.2,1.3l0.1,1.5l0.6,3.5l0.5,2l0.6,1.1
	l20.4,8l0.5,0.5l0.8,4.2l-0.3,3.2l-0.9,3.1l-1.3,2l-0.3,0.6l-0.1,0.7l0.1,1.5l-0.1,0.9l-0.4,0.7l-0.9,1.4l-0.8,2.1l-0.8,0.7
	l-0.3,0.5l0.1,0.8l-2.2,1.2l-0.7,1l-0.3,1.7l-0.7,1.6l-0.2,0.7l0.3,1.5l-0.1,0.7l-0.6,0.8l0.7,1.3l-0.7,1.5l-1.8,2.8l-1.2,4.7
	l-0.7,1.2l-0.8,1.3l-0.6,1.2l-0.4,0.7l-1.8,1.8l-0.4,0.3l-1.5,0.8l-1.5,0.6l-1.5,0.4h-1.6l-1.1-2.2l-2.6,0.3l-2.8,1.7l-1.9,2
	l-2.2,4.4l-1.1,1.3l-2.5,1.7l-1,0.9l-0.8,1.6L757,809.3l-1.4-1.1l-1.5-0.8l-1.6-0.5l-3.3-0.5l-8.3-4.4l-3.2-2.2l-3.2-1.5l-3.2,0.2
	l-1.6,0.9l-1.4,1.3l-3.3,4.5l-3.9,3.8l-1,1.4l-2.6,4.7l-0.5,1.5l0.5,3.2l-0.2,2.8l0.4,1.5l0.6,1.6l0.3,1.4l0.1,1.7l-0.1,1.7
	l-0.2,1.7l-0.4,1.7l-0.5,3.5l0.9,12.7l-0.1,5.3l0.1,2l0.5,1.8l2.4,5.7l-4.9,3.6l-9.7,5.4l-10.5,9.5l-1.1,0.5l-1.8,0.3l-1,0.6h-3.1
	l-5,1.1l-2.7,0.3l-2.1,0.4l-1.7-0.1l-0.6,0.1l-3.4,1.2l-1.4,0.2l-4.8-1l-2.4-1l-1.9-1h-1l-1.4,1.1l-6.3,9.1l-4.1,10.6l-2.5,4.9
	l-1.4,5.5l-1.9,5.4l-1.3,7.3l-0.2,4l-0.4,1.7l-10.5,24.3l-2.4,3.1l-0.5,0.9l-1.4,5.9l-2.1,5.6l-0.3,1.4l0.1,1.3l0.9,2.8l-2,4.2
	l-9.1,15.6l-2.1,2.7l-2.6,1.7l-5.7,2.5l-5.4,2.9l0.5,0.5l-0.8,0.7l-1.5-0.5l-3.8,0.8h-1.1l-1-0.4l-1.1-0.1l-2.8,0.5h-1.7l-11.5-3.1
	l-1.3-0.7l-1-1l-1.8-2.4l-0.1,1.8l-3.8-0.2l-0.4-0.3l-0.2-0.6l-0.9,0.4H564l-0.9-0.3l-0.4-0.9l-0.5-0.6l-1.3-1.1l-0.3-0.1l-0.7,0.2
	l-0.1,1.6l-3.4,1.5l-3.8,0.3l-14.1-1.6l-2.1,0.1l-2.1,0.6l-0.8-0.2l-1.6-1.3l-2-0.6l-0.8-0.5l-1-1.2l-1.7-2.7l-1.3-1.3l-21.9-14.1
	l-11.5-7.4l-7.6-4.9l-16.6-10.7l-1.1-0.2l-0.2-0.3l-0.3-1.5l-0.3-0.7l-0.4-0.6l-0.5-0.1l-1.4,0.1l-0.5-0.4l-1-1.7l-0.7-0.5l-2.7-0.6
	l-4.7-2.4l-4-1.1l-12.8,0.1l-0.2-0.1l0.8-0.7l2.3-0.8l1.3-0.9l0.6-0.8l1-2.7l1.2-2.7l3.2-4.9l4.8-6.2l1.7-3.5l0.4-3.8l-0.4-1.8
	l-1.5-3.2l-0.4-1.8v-1.5l3.1-9.9l1.4-2.9l2-2.3l1.5-0.9l1.6-0.2l5.1,0.8h1.6l6.3-0.9l1.1-0.1l2,0.2l1.7,0.5l2.8,1.6l1.6,0.6l3.5-0.2
	l3.5-1.4l6.5-3.5l3-1.1l1.6-0.7l0.9-0.9l0.8-1.2l1.1-0.8l1.4-0.3l1.5,0.3l3.2,1.3l3.2,0.9l1.2,0.8l1.2,1.1l1.4,0.8l1.6-0.1l1-0.9
	l0.4-1.3l0.1-1.5l-0.4-3.2l0.1-1.4l0.5-1.3l0.9-1.6l1.2-2.9l0.6-3.4v-3.5l-1-4.6l0.5-1.2l1.1-0.8l3.2-0.6l4.2-2.2l1-1l0.3-1.7
	l-0.5-1.6l-1.2-0.8l-1.6-0.5l-1.1-1.1l-0.7-1.4l-0.6-3.2l-1.3-2.8l-0.4-1.7l-0.6-1.1l-1.4-0.7l-6.7-2.8l-2.2-0.5l-1.5-0.4l-0.5-1
	l0.1-1.7l-0.7-4.9l0.1-1.6l0.7-1.4l1.8-2.7l1.3-2.5l1.1-3.5l0.3-3.5l-1.3-2.5l-2.2-2.6l-0.2-2.8l1.3-2.9l3.1-4.4l1.1-1l1.2-0.1
	l1.5,1.3l0.3,0.2l2.2,0.1l0.8-0.1l1.7-0.6l1.4,0.2l1.1,1l0.9,1.1l1.3,0.7l0.7,0.3l2.8,1.7l1.2,1.1l1.7,2l0.8,0.1l1.4-0.4l1.4-0.2
	l1.3-0.1l1.2,0.3l2.4,2.2l0.1,2.8l-1.7,2.4l-4.3,1.6l-0.7,1l-1.1,2.5l-0.1,1.4l1.2,2.6l-0.2,1.6l-1.1,1.5l-1.4,0.5l-1.5-0.2
	l-1.4-0.7h-1l-0.5,1.5l-0.1,1.8l0.3,1.4l8.2,14.4l1.3,1.7l1.5,0.2l1.4-0.3h1.4l1.4-0.3l4.8-3.2l0.2-0.8l-0.7-0.7l-3.9-2.2l-1.8-1.8
	l-0.4-0.7l0.2-0.5l1.2-1.1l0.8-1.2l2.3-4.1l0.8-2.7l0.8-1.2l1.5-1.1l1.2-0.7l0.7-1l0.2-2l-0.8-5.7l0.4-3.3l1.3-2.3l2.4-1.3l3.3-0.6
	l2.7,0.1l2.7,0.5l5,1.5l0.5,0.1h1.8l2.4-0.3l0.9,1.7l0.5,0.6l5.1,2.4l0.3,0.6l1.6,1.9l1.9,3.5l1.3,2l0.4,1.5v0.5l3.2,2.8l2.9,0.2
	l6.6-0.9l-1-1.1l-0.6-1.3l-1.1-2.9l-0.2-1.6l0.7-1.3l1-1.2l0.7-1.5v-3l-1.6-6.1l-0.4-3l-0.3-1.2l-1.1-1.2l-5-4.6l-2.6-1.7l-0.7-0.9
	l-1-0.9l-1.7-0.4l-3.2-0.3l-1.1-0.2l-8.7-4.5l-2.3-0.7l-1.2-0.7l-1.1-0.9l-0.5-0.8l-0.2-2.3l1.9-10.1l-1.5-3.9l-2-3.2l-2.2-1.7
	l-1.7,0.3l-2.2,1l-2.3-0.9l-2.1-1.4l-1.9-0.5l-2.6-0.5l-2.1-1.3l-1.7-0.6l-1.3,2.1l-0.6,1l-2.7,3.2l-1.1,0.8l-6.1,1.3l-2.3-0.6
	l-1.8-0.9l-1.1-1.2l-0.4-1.3l0.2-2.5l0.5-2.3l1-2.1l1.8-1.6l9.2-5.7l0.7-1l0.6-2.7l0.6-1.4l1.8-2.1l0.8-1.4l0.5-1.6l0.5-1l0.9-0.9
	l1.7-0.7l1.5-0.5l1.1-0.5l0.6-0.9v-1.7l-0.7-5l0.2-3.2l0.2-1.2l1.2-2.5l0.4-1.4l0.6-1.2l2.4-2.4l1.5-2.7l2.9-3.6l2.2-3.6l0.9-2.7
	l0.6-1.3l0.2-0.7l-1-5.1l-0.7-2.4l-0.2-0.9l-0.5-1.7l-2.1-2.9l-0.4-1.4l3.9-1.3l0.6,1.4l1.2,5.4l0.6,1.1l0.7,1l1.7,1.9l0.6-1.4
	l0.1-1.5l-0.3-1.6l0.1-1.6l1.1-4.5l-1.6-1.1l-0.8-0.9l-0.3-1.2l0.7-3.3l-0.2-1.5l-0.6-1.5l-0.8-1.3l-4.2-2l-1.1-1l-1.4-0.1l-1.5,0.3
	l-1.3,0.4l-0.4,0.2l-1.4,1.6l-1,1.4l-0.5,1.1l-0.8,4.3l-0.6,1.1l-2,1.7l-2.8,0.9l-2.4-0.4l-1-2.5L547,687l-0.4-1.5l-0.5-0.9l-1-1
	l-1.1-0.7l-1.4-0.3l-3.6,0.9l-9.1,1.1l-12.6,3.1l-1.7,0.1l-4.5-1l-1.5,0.1l-1,0.3h-0.9l-1.3-0.7l-4.5-0.6h-1.4l-0.9-1.3l-0.9-1.8
	l-1.3-1.2h-1.5l-1.4,0.7l-1,1.1l-0.8,1.3l-1.2,2.9l-0.3,1.9l0.4,0.6l0.3,1.2l0.7,0.9l1.1,0.7l1.1,0.5l4.9,1.2l0.6,0.4l0.1,0.8
	l-0.8,5.8l-0.1,4.9l0.3,1.3l1.1,2.1l0.4,1.2v1l-0.1,0.8l-1.9,0.5l-1.3,0.3l-1.4-0.2l-1-0.7l-1.3-2.8l-1.7-0.7l-2.2,0.2l-4,1.2v1.8
	l2.4,2.7l0.4,1.9l-0.3,1.2l-1.2,2.3l-0.4,1.3l-0.2,1.2v6.9l0.5,2.6l1.6,5.1v0.9l-1.8,7l-0.3,0.5l-0.4,1.4l-0.3,3l-0.9,2.1l-0.2,0.3
	l-0.8-0.3l-2.2,1.4l-6.6,3l-4.4,3.4l-1.9,1.1l-2.2,0.4l-5.3-0.3l-4.8,0.8l-2.4,0.2l-3.1-0.3l-3-0.8l-2.9-1.3l-11.4-7.6H433l-5.2-2.2
	l-1.5-0.5l-1.3-0.2h-2.9h-0.6l-2.4-0.8l-0.9-0.4l-1.2-0.8l-0.5-0.2l-1.5-0.2l-4-1.5l-3-1.5l-2.4-1.9l-2.6-1.6l-5.2-0.7l-1.1-0.8
	l-0.5-1.3l0.1-1.8l0.4-1.8l-0.1-1l-1.5-2.4l-1.6-3.3l-0.8-1l-1-0.6l-2.2-1l-4.1-2.5l-1.3-1.3v-1.2l1.9-2.4l0.8-1.3l0.5-1.5l-0.1-1.6
	L386.6,711.3 M400.6,641.4l-2.8-0.7l-1,0.1l-0.5,0.7l-0.1,1.1v1.2l-0.1,1l-0.4,0.7l-1.1,1.3l-0.5,0.9v0.8l0.3,1.7v0.8l-0.4,0.5
	l0.3,0.7l0.5,0.5l1.3,0.7l0.6-0.5h1.2l1.3-0.2l0.4,0.2l0.6,0.8l1.4-0.1l1-0.6l1.6-1.7l0.7,1l1.6,1.3l0.7,0.8l0.1,0.6l-0.1,1.1
	l0.4,0.6l1,0.6l1.3,0.1l-0.2-0.7l-0.3-0.7l-0.8-1.2l1-0.4v-0.9l-0.6-0.9l-1-0.4l-0.2-1.5l0.1-2l0.4-2.1l0.5-1.2l-0.8,0.3l-0.9-0.1
	l-0.8-0.3l-0.8-0.8l-0.5-0.8v-0.3l1-1l-0.7-0.4l-1.9-0.6l-0.9-0.1l-0.7,0.3L400.6,641.4L400.6,641.4z M581.4,637.5l-0.2-1l-1.4,1.4
	l-0.7-0.1l-0.5-0.9l-0.3-0.3l-0.8,0.1l-2.7,0.6l-0.8,0.3l-1.1,0.9l-1.2,1.6l-0.9,1.8l-0.5,1.4l0.6,0.9l-0.1,0.5l1,1.6l0.6,2l0.5,0.6
	l0.6,0.6l1.5,0.5l0.7,0.6l0.6,0.7l1.3,1.6l0.8,0.6l1.3,0.7l1.3,0.2l0.8-1.1l0.4-1.3l0.9-0.1l1,0.1l0.8-0.5l0.1-1l-1-2.5l-0.2-1.2
	l1.4,0.4l1.4,0.1l-0.2-0.8l0.5-1.5l0.2-0.9v-1.3l-0.4-1.2l-1.7-3.8l-1.4-0.1l-1.7,0.1L581.4,637.5L581.4,637.5z M413.2,647.5
	l1.5-0.6l0.7-0.5l0.5-0.6l-1.1-0.6l-1.2-1.4l-0.8-0.5l-2.9,1.5l-0.6,0.8l0.6,0.8l0.9,0.6l0.6,0.4l0.6,0.2L413.2,647.5L413.2,647.5z
	 M423,615.6l-0.2-1.5l0.7-1.3l2.6-1.2l0.5-0.5l0.1-0.8l-0.4-0.6l-2.2-1.6l-1.2-0.3l-1.2,0.3l-1.3,0.9l-0.8,0.9l-0.4,1l-0.7,2.6
	l1.6,5.4l0.8,1.3l0.2-0.1l0.3-1.4l0.8-0.4l2.3,0.4L423,615.6L423,615.6z M810.1,617.1l-1.4,0.1l-1.6,0.8l-1.5,0.5l-1.7-0.5l-1.2-0.7
	l-1.1-0.1l-1.5,1.6l-2,3.4l-0.7,1.9l-0.3,2l0.1,1.5l1.1,0.2l1.3-0.3l1.3-0.1l0.6,0.4l1,0.9l0.5,0.3l1-0.1l1.8-0.8l0.9,0.3l1.8,1.6
	l1.1,0.3l1.1-0.6l0.6-1.3l-0.4-1.2l-0.7-1.3l-0.4-1.2l0.1-0.9l0.8-1.4l0.4-3.2v-0.6L810.1,617.1L810.1,617.1z"/>
<path id="ETH3132" class="st0" d="M413.2,647.5l-1.2,0.1l-0.6-0.2l-0.6-0.4l-0.9-0.6l-0.6-0.8l0.6-0.8l2.9-1.5l0.8,0.5l1.2,1.4
	l1.1,0.6l-0.5,0.6l-0.7,0.5L413.2,647.5L413.2,647.5z M400.6,641.4l1.2,0.2l0.7-0.3l0.9,0.1l1.9,0.6l0.7,0.4l-1,1v0.3l0.5,0.8
	l0.8,0.8l0.8,0.3l0.9,0.1l0.8-0.3l-0.5,1.2l-0.4,2.1l-0.1,2l0.2,1.5l1,0.4l0.6,0.9v0.9l-1,0.4l0.8,1.2l0.3,0.7l0.2,0.7l-1.3-0.1
	l-1-0.6l-0.4-0.6l0.1-1.1l-0.1-0.6l-0.7-0.8l-1.6-1.3l-0.7-1l-1.6,1.7l-1,0.6l-1.4,0.1l-0.6-0.8l-0.4-0.2l-1.3,0.2h-1.2l-0.6,0.5
	l-1.3-0.7l-0.5-0.5l-0.3-0.7l0.4-0.5v-0.8l-0.3-1.7v-0.8l0.5-0.9l1.1-1.3l0.4-0.7l0.1-1v-1.2l0.1-1.1l0.5-0.7l1-0.1L400.6,641.4
	L400.6,641.4z M423,615.6l1.5,3.1l-2.3-0.4l-0.8,0.4l-0.3,1.4l-0.2,0.1l-0.8-1.3l-1.6-5.4l0.7-2.6l0.4-1l0.8-0.9l1.3-0.9l1.2-0.3
	l1.2,0.3l2.2,1.6l0.4,0.6l-0.1,0.8l-0.5,0.5l-2.6,1.2l-0.7,1.3L423,615.6L423,615.6z M463.2,555l-1.3,3.7l-0.7,1.3l-0.7,0.9
	l-0.8,0.4l-1.3-0.1l-6.9-2.1l-1.4-1.1l-3.6-1.5l-2.9-1.8l-1.2-0.1l-5.8,3l-0.9,0.7l-1.5,3l-1.4,0.3l-1.1-0.3l-1.1-0.5l-1.2-0.4
	L429,560l0.2-0.8l2.3-6.6l-0.4-0.2l-4.1,0.4l-1.4,0.6l-1.2,1l-2.5,2.6l-1,1.2l-3.5,5.8l-2.2,2.5l-5.9,4.3l-2.7,1.5l-1.3,0.5
	l-1.3,0.1l-1.2-0.9H402l0.6,11.9l-0.4,6.4l0.4,1.4l0.7,1.6l0.1,1.4l-0.6,1.1l-1.3,1l-0.1,0.3l2.1,1.8l4.5,5.3l1.1,0.8l2,2l0.4,3.7
	l-0.8,4.8l-1.9,5.5l-9.7,12.7l-1.5-0.6l-0.9-4.2l-1.1-1.3l-2.1,0.2l-0.8-0.1l-0.6-0.8l-2.4-4.2l-0.6-1.3l-0.5-0.9l-0.6-0.3l-1.3,0.1
	l-2.6-0.2l-2,0.1l-0.8-0.1l-0.8-0.4l-0.7-0.8l0.1-3.8l-0.2-0.8l-1.3-2.9l-0.9-1.2l-0.9-0.1l-2.8,0.5l-3.3-3.4l-9.1-11.1L348,582.7
	l-2.5-1.9l-1.4-0.8l-1.3-0.2h-1.3l-3.1-0.5l-2.2-0.1L331,580l-1.7-0.1l-0.7-1.1l-0.1-1.6l0.1-1.7l-0.4-0.7l-1.1-0.4l-8.5-0.6
	l-0.3,0.6l0.6,1.6l1,1l0.5,1l-3.9,12.3L314,595l-7.5,8.1l-2.1,0.3l-1.7-0.9l-3.1-2.7l-1.5-1.1l-1.2-0.2l-2.5,0.4h-1.5l-1.6,1
	l-1.4,12.5l-2.6,11.7l-0.5,1.6l-0.6,1.2l-0.7,1.2l-0.9,1.2l-1.3,0.9l-1.9,0.2l-12.4-1.1l-3.1-0.1l-1.1-22l2.1-10l8.2-23.5l4-3.6
	l1.5-2.3l0.1-0.7l-0.3-1.7l0.1-0.7l1-1.5l0.6-2.8l-0.1-3.1l-3.3-14.9l-0.2-2.8l0.5-2.4l5.7-8.1l2.6-5.1l1-1.4l1.2-1l8-5.6l1.1-0.4
	l0.8,0.3l8.1,7.2l2,1.2l0.8,0.8l0.5,1l-0.3,2.1l0.1,1l0.7,0.2l0.5-0.5l0.9-2.1l0.8-0.7l1.1-0.1l0.9,0.2l0.7-0.1l0.8-1.1l0.4-1.2V523
	l0.3-0.9l1.2-1.1l3.6-2.8l1.2-1.6l0.5-2.3l-0.4-1l-2-1.5l-0.6-0.9v-0.7l4.4-13l0.3-2.1l-0.9-1.4l-1.1-1.3l-0.7-1.9l0.2-1.4l8.4-18.7
	l0.3-1.3l-0.2-1.3l-1.4-2.8l-0.5-1.4l0.1-2.7l-0.5-2.6l0.1-1.4l0.5-1.6l0.7-1.7l0.9-1.5l1-1.4l2.6-1.6l5.9-2.3l2-2.3l0.1-0.7
	l0.1-1.2l1.7,1.5l2.6,6.1l1.8,2l1.7,1.4l1.6,0.8h1.4l3.7-1.2l2-0.3l1.8,0.2l1.4-0.2l1.4-1.2l1.6-1.7l8.4-6.6l1.1-1.5l1.8-4.4
	l0.4-0.4l2.8,0.3h2l0.7,0.1l0.8,1.3l1.7,0.2h1.9l1.1,0.3l0.3,0.3l1.6,1l0.6,0.8l0.8,1.8l0.9,0.9l2.8,2.4l0.3,0.4l2.3,3.8l1.6,2
	l0.7,1.6l0.5,3.4l1,3.1l1.3,0.6l1.4-0.1l1.2-0.8l2.8-3l2.6-2.3l2.6-1.9l1.6-0.5l0.4,0.7l-0.3,4.5l0.3,6.1l0.8,1.3l2.2,2.3l3.9,5.9
	l0.1,0.6l-0.8,1.1l-1.3,1.3l-0.6,1.4l1.6,1.4l1.1,0.7l4.1,4.1l-0.2,2.7l-1,2l-1.2,1.7l-0.7,1.5l0.2,1.2l0.3,1.4l0.2,1.4l-0.6,1.2
	l-0.2,0.9l2,4.3l-1.7,2.9l-1.8,2l-3.5,2.7l-1,1.1l-1.1,1.4l-0.9,1.4l-0.2,1v1l-1.6,3.8l-0.2,2v1.9l0.2,1.2h0.2l0.6-1.4l0.9-0.9
	l1.3-0.5h1.5l0.9,1.2l-4.4,9.9l0.5,3.8l1,2.9l1.4,2.1l1.4,1.7l1.6,1.1l1.6,0.1l3.3-1.6l0.7-0.1l0.8,0.3l0.7,1v1.1l-0.2,1.2l0.1,1.2
	l0.9,1.3l1.3,0.5h3.1l7.6,0.7l0.6-0.1l1.6-0.4h0.6l1.2,1.2l1.3,0.5l3.1,0.2l1.4,0.3l2.7,1L463.2,555L463.2,555z"/>
<path id="ETH3133" class="st3" d="M581.4,637.5l0.5,0.3l1.7-0.1l1.4,0.1l1.7,3.8l0.4,1.2v1.3l-0.2,0.9l-0.5,1.5l0.2,0.8l-1.4-0.1
	l-1.4-0.4l0.2,1.2l1,2.5l-0.1,1l-0.8,0.5l-1-0.1l-0.9,0.1l-0.4,1.3l-0.8,1.1l-1.3-0.2l-1.3-0.7l-0.8-0.6l-1.3-1.6l-0.6-0.7L575,650
	l-1.5-0.5l-0.6-0.6l-0.5-0.6l-0.6-2l-1-1.6l0.1-0.5l-0.6-0.9l0.5-1.4l0.9-1.8l1.2-1.6l1.1-0.9l0.8-0.3l2.7-0.6l0.8-0.1l0.3,0.3
	l0.5,0.9l0.7,0.1l1.4-1.4L581.4,637.5L581.4,637.5z"/>
<path id="ETH3134" class="st0" d="M599.3,1010.7l0.8-0.7l-0.5-0.5l5.4-2.9l5.7-2.5l2.6-1.7l2.1-2.7l9.1-15.6l2-4.2l-0.9-2.8
	l-0.1-1.3l0.3-1.4l2.1-5.6l1.4-5.9l0.5-0.9l2.4-3.1l10.5-24.3l0.4-1.7l0.2-4l1.3-7.3l1.9-5.4l1.4-5.5l2.5-4.9l4.1-10.6l6.3-9.1
	l1.4-1.1h1l1.9,1l2.4,1l4.8,1l1.4-0.2l3.4-1.2l0.6-0.1l1.7,0.1l2.1-0.4l2.7-0.3l5-1.1h3.1l1-0.6l1.8-0.3l1.1-0.5l10.5-9.5l9.7-5.4
	l4.9-3.6l-2.4-5.7l-0.5-1.8l-0.1-2l0.1-5.3l-0.9-12.7l0.5-3.5l0.4-1.7l0.2-1.7l0.1-1.7l-0.1-1.7l-0.3-1.4l-0.6-1.6l-0.4-1.5l0.2-2.8
	l-0.5-3.2l0.5-1.5l2.6-4.7l1-1.4l3.9-3.8l3.3-4.5l1.4-1.3l1.6-0.9l3.2-0.2l3.2,1.5l3.2,2.2l8.3,4.4l3.3,0.5l1.6,0.5l1.5,0.8l1.4,1.1
	l10.8,11.1l0.8-1.6l1-0.9l2.5-1.7l1.1-1.3l2.2-4.4l1.9-2l2.8-1.7l2.6-0.3l1.1,2.2h1.6l1.5-0.4l1.5-0.6l1.5-0.8l0.4-0.3l1.8-1.8
	l0.4-0.7l0.6-1.2l0.8-1.3l0.7-1.2l1.2-4.7l1.8-2.8l0.7-1.5l-0.7-1.3l0.6-0.8l0.1-0.7l-0.3-1.5l0.2-0.7l0.7-1.6l0.3-1.7l0.7-1
	l2.2-1.2l-0.1-0.8l0.3-0.5l0.8-0.7l0.8-2.1l0.9-1.4l0.4-0.7l0.1-0.9l-0.1-1.5l0.1-0.7l0.3-0.6l1.3-2l0.9-3.1l0.3-3.2l-0.8-4.2
	l-0.5-0.5l-20.4-8l-0.6-1.1l-0.5-2l-0.6-3.5l-0.1-1.5l0.2-1.3l0.9-2.8l3.1-6.8l1.1-3.8l-0.4-3l-1.1-1.9l-0.7-1.6l-0.2-1.7l0.9-16.3
	l0.7-3.8l1.3-3.2l3.7-5.3l0.9-1.8l0.1-1.8l-0.4-3.9l0.5-1.6l2.5-3.3l2.8-2.9l6.3-5.4l4.5-1.2l2.6,4.8l0.9,0.9l7.9,1.5l3.8,1.6l2,2.8
	l2,11.3l1.1,3.5l1.6,3.2l2.1,2.4l2.2,0.5l2.4-2.8l2.6-9.8l1.8-2.5l1.4-0.8l5.9-1.5l1.1-0.9l0.4-1.6l0.1-1.8l0.6-3.2l0.1-1.9
	l-0.2-1.8l-0.4-1.7l-0.7-1.3l-3.4-3.5l-0.7-3.1l2.1-6.2l-0.5-2.8l-1.3-1.1l-2.9-2.2l-1.3-1.2l-4.6-5.1l-4.1-6.5l-1.2-2.7l-0.2-1.2
	l0.2-1.8l-0.3-0.5l-1.2-1.3l-0.8-1.3l-2.2-6.4l-0.2-1l-0.1-1.6l-0.2-0.6l-4.2-8.6l-2.2-3.1l-2.4-2.4l-2.1-0.5l0.4-6.6l-0.8-2.9
	l-2.7-0.8l-2.5-2.8l-3.3-1.2l-3.4,0.4l-3.1,2l-7.7,7.8l-1.2,0.2l-1.8-0.6l-5.1-2.8l-1.8-0.5l-1.7,0.4l-3.2,2.1l-1.3-0.1l-2.4,0.5
	l-1.5,3.8l-0.6,4.5l0.4,3l-1.7,0.4l-1.7-0.2l-1.4-0.6l-1-1.4l-0.8-0.9l-1.5-0.3l-1.7,0.2l-1.6,0.4l-1.3,0.7l-2.3,2l-1.2,0.6
	l-1.5-0.1l-5.1-1.8l-5.5-1.1l-2.8-0.1l-2.6,0.7l-0.7,0.4l-1.8,1.9l-1.4,1.2l-1.5,0.9l-1.5,0.7l-3.2,1.2l-1.4,0.7l-1.3,0.9l-1.2,1
	l-0.6,0.4l-1.5,0.1l-0.7,0.2l-0.7,0.3l-2.1,1.4l-2.9,1l-1.7,0.4l-1.4,0.1l-1.5-0.5l-1-1l-0.6-1.4l-0.4-1.7l0.3-1.4l1.2-0.1l2.9,0.6
	l1.7-0.1l1.7-0.4l0.9-0.9l-0.7-1.4l-3.1-1.9h-3.1l-3.3,0.7h-3.7l-0.8-0.1l-0.6,0.3l0.6-4.7l1.2-4.9l1-2.5l5.9-9.2l3.7-4.2l8.4-7.3
	l1-1.5l-0.6-0.9l-3-1.2l-1.1-1l-0.5-1.7l-0.1-1.7l9.6-36.8v-1.9l-0.4-2.8l0.2-1.3l0.6-1.4l2.3-2.8l5.1-5.1l1.9-3.1l0.4-1.7l0.3-1.9
	l0.5-1.7l1.3-1.4l1.5-0.4l26.5,0.2l2-0.2l1.2-0.5l1.1-0.7l0.8-0.4l0.4,0.7l1.7,0.6l7.9,1.6l0.4,0.8l0.4,0.3l0.5,0.1l0.7-0.6l0.5-0.2
	l3.7-0.1l1.9-0.5l2-2.1l1.8-0.6l3.7-0.4l3.4,0.8h1.3l0.9-0.2l2.3-1.1l2.4-0.1l2.1-0.7l1.6,0.2l1,0.4h1l1.4-0.7l4.4-2.9l6-1.8
	l3.1-0.3l4.7,1.2h1.6l1.3,0.5l1.7,3.7l1.1,1l1.5,0.3l2.7,0.3l1.7,0.5l0.8,0.1l1-0.4l0.7-0.8l0.7-0.6l1,0.4l-0.8,1.5L853,512
	l-0.5,1.2l-1.1,0.9l-2.8,1.2l-1,1.1l-0.6,1.3l-0.2,1.2l-0.4,1l-1.1,1.1l-2.4,1.9l-0.8,1.1l-0.6,1.7l-0.6,2.7l-0.5,1.4l-0.8,1.1
	l-1.3,0.7L837,532l-0.9,0.7l0.1,1.4l1.3,3.1l1.8,2.8l3.7,3.6l1,1.3l0.7,1.9l0.9,6.1l1.2,4.4l1.9,4.1l1.7,2.1l6.4,4.2l1.6,1.6l1.2,2
	l0.8,2.2l0.6,2.3l1.2,3.1l1.9,1.9l2.4,0.9l3.1,0.6l2.4,1.1l1.3,2.2l1.9,10.8l1,2.6l1.4,1.6l1.8,0.5l0.6,0.3l0.6,0.6l0.6,1.5l0.5,0.7
	l0.6,0.6l1.4,0.9l0.6,0.6l1.5,3.1l0.4,1.2l0.1,2.3l0.3,1.2l0.9,1.1l8.6,5.2l1.2,0.1l1.6-0.6l1.1-0.1l1,0.5l5.1,4.7l5.9,5.5l13.2,12
	l2.6,1.6l40.5,13.4l35.2,11.7l23.5,7.8l16.8,5.7l22.3,7.6l16.8,5.7l27.9,9.4l9.8,3.3l3.9,2h5.9h51.2h9.5l-9.7,9.5l-13,12.6l-6.4,6.3
	l-16.2,15.7l-6.5,6.3l-12.9,12.6l-3.3,3.2l-12.9,12.5l-9.7,9.5l-12.9,12.6l-8.2,8.3l-12.2,12.6l-12.1,12.6l-21.5,23.5l-21.4,23.6
	l-14.3,15.7l-3.8,4.1l-5.2,5.7l-2,0.8l-13.9-0.8l-17.3-1l-31.6-1.8l-2.4,0.6l-5.8,2l-21.1,4.9l-27.3,13l-10.6,8.7l-0.9,1.4l-0.9,2.2
	l-1.2,4.7l-1,2.1l-2,2.3l-2.5,1.7l-2.8,1.1l-25,4.2l-7.8,1.4l-10.8,0.1l-2.1,0.5l-2.3,1.2l-3.8,3l-4.7,2.9l-1.2,1l-0.4,1.3v2.1
	l-0.3,0.8l-1,0.8l-0.9,1.3l-3.2,1.8l-3-0.6l-2.9-1.5l-3.2-1l-2.8,1.6l-1,0.2l-0.9-0.2l-1.8-0.7l-1-0.1l-5.4,1.3l-1.7,0.1l-3.4,1
	l-14.2,0.8l-3.5-0.4l-3.3-1.3l-2.9-2.3l-4.3-6l-1.7-1.6l-1.1-0.7l-3.2-1.1l-1.2-0.6l-0.7-0.7l-1.1-2l-1.6-1.9l-4-2.7l-1.5-2
	l-4.2,2.8l-21.2,8.1l-0.4,0.4l-0.3,1.1l-0.4,0.3l-12,4.2l-1.2-0.2v0.7l-0.3,0.4l-3.1,1.5l-17.8,8.6l-1.4,1.7l-3.2,8.4l-1.1,2
	l-1.2,1.7l-9.6,8.8l-1.8,2.1l-1.4,4.4l-1.1,1.8l-2.2,0.1l-1-0.7l-0.5-0.9l-0.4-0.9l-0.5-0.8l-2.1-0.6l-8.3-0.3l0.6-1.2l-0.3-0.7
	l-0.9-0.1l-3,1.8h-2.5l-2.6-0.5L599.3,1010.7L599.3,1010.7z"/>
<path id="ETH3135" class="st0" d="M815.7,594.4l-1.3,0.7l-2.4,2.1l-1.1,1l-1.1,0.6l-3.4,0.2l-1.6,0.6l-2,1.1l-0.9,0.7l-0.3,0.6
	l0.2,0.8l1.3,2.1l-0.3,1.6l-1.6,1.5l-1.9,1.5l-1.2,1.5l-4-2h-1.8l-3.7,1.7l-1.6,0.2l-0.8-0.2l-1.9-0.6l-0.8,0.1l-2.1,0.4l-1.9-0.3
	l-1.9-0.2l-2.1,1l-0.4-3l0.6-4.5l1.5-3.8l2.4-0.5l1.3,0.1l3.2-2.1l1.7-0.4l1.8,0.5l5.1,2.8l1.8,0.6l1.2-0.2l7.7-7.8l3.1-2l3.4-0.4
	l3.3,1.2L815.7,594.4L815.7,594.4z"/>
<path id="ETH3136" class="st0" d="M810.1,617.1l1,1.5v0.6l-0.4,3.2l-0.8,1.4l-0.1,0.9l0.4,1.2l0.7,1.3l0.4,1.2l-0.6,1.3l-1.1,0.6
	l-1.1-0.3l-1.8-1.6l-0.9-0.3l-1.8,0.8l-1,0.1l-0.5-0.3l-1-0.9l-0.6-0.4l-1.3,0.1l-1.3,0.3l-1.1-0.2l-0.1-1.5l0.3-2l0.7-1.9l2-3.4
	l1.5-1.6l1.1,0.1l1.2,0.7l1.7,0.5l1.5-0.5l1.6-0.8L810.1,617.1L810.1,617.1z"/>
<rect id="_x30_" x="751.9" y="876" class="st0" width="0" height="0"/>
<rect id="_x31_" x="628.8" y="886.1" class="st0" width="0" height="0"/>
<rect id="_x32_" x="563.3" y="858.2" class="st0" width="0" height="0"/>
<g>
	<path id="ERI99" class="st4" d="M870.4,388.9l0,0.5l-0.6,0l-0.3-0.4L870.4,388.9z M857,381.4l0.1,0.5l-0.7-0.2l-0.5-0.4l-0.1-0.9
		l0.5,0.1L857,381.4L857,381.4z M857,377.7l0.7,1l-0.3,0l-0.9-0.7l-0.5-0.6l0-0.8l0.6-0.2l0.3,0.5L857,377.7L857,377.7z
		 M854.5,372.3l2.9,1.4l0.4,0.4l0.1,0.5l-0.6,0.2l-0.1,1l-0.5,0.3l-0.5-0.3l-0.2-0.8l-0.9-0.1l-0.4,0.1l-0.5,0.4l-0.3-0.3l-0.5-1.1
		l-0.1-1.1l0.4-0.4l0.9,0.6l0.2-0.2L854.5,372.3L854.5,372.3z M851.9,366.9l-0.5,0.3l-0.5-0.3l-0.4,0.2l0.1,0.4l0.3,0.1l0.3,0.5
		l0.6,0.7l0.4,0.2l-0.3,0.4l-1.9-0.6l-0.5-0.4l0.1-0.9l0.9-0.7L851.9,366.9L851.9,366.9z M681,233.7l-0.8,0.4l-0.4,0l-1.5,0.1
		l-0.2-0.4l-0.1-0.5l1.6-2.8l0.2-1.3l0.3-0.4l0.8,0l1.4,0.3l0.8,1.1l0.3,1.5l-0.4,0.5l-0.8,0.4L681,233.7L681,233.7z M679,224.4
		l-1.4,0.7l-0.6,0l-0.3-0.4l-0.9-0.2l-0.1-0.2l-0.3-1.2l0-0.6l0.3-0.6v-0.7l0.4-0.6l2.8-1.6l0.8-0.1l0.4,0.4l-0.3,0.4l-0.6,0.6
		l-0.4,0.9l-0.3,0.3h-0.6l-0.2,0.3l0.8,0.9l0.4,1L679,224.4L679,224.4z"/>
	<path id="ERI1560" class="st4" d="M579.4,194.2l0.1,27.7l-4.5-0.5l-2.1,0.3l-2.7,1.2l-5.8,1.4l-5.9,0.4l-1,0.2l-1,0.4l-1.2,0.8
		l-2.6,2.9l-1.4,2.5l-1,1.3l-0.9,0.8l-2.5,1l-1.5,0.9l-1.2,1.1l-0.6,0.9l-1,2.7l-1.3,2.6l-0.2,1.2l0.1,1.6l0.4,2l2.1,4.6l0.3,2.5
		l-0.8,1.9l-0.4-1.1l-0.7-0.8l-1-0.4l-1.6-0.1l-3.8,0.7l-1.2-0.2l-7.2-3l-0.5-0.4l-0.4-0.7l-0.2-1.1l-0.6-0.5l-0.8-0.1l-0.3-0.4
		l-0.4-1.2l0-1l-0.2-0.2l-0.6-0.1l-0.3-0.2l-1.3-2.6l-0.8-1.2l-1.2-1l-2.7,6.6l-12.8,30.9l-6.2,15l-0.8,0.8l-1.2-0.8l-0.7-0.9
		l-0.3-1.1l-0.1-1.8l-0.2-0.7l-0.5-0.5l-0.7-0.4l-0.7-0.1l-0.9-0.3l-0.4-0.8l-0.3-1.7l-0.5-1.3l-0.3-0.4l-2.7-2.3l-0.9-0.5l-0.2-0.7
		v-1.6l-0.1-1l-0.2-0.6l-1-1l-2.5-3.7l-1.3-0.7l-1.6-1.4l-0.9,0.1l-1.4,0.5l-4.9-0.1l-2.3,0.5l-1.9,1.5l-1,1.5l-0.5,1.3l-0.2,1.4
		l0,1.7l-0.2,1.4l-0.5,1.1l-0.7,0.9l-0.9,0.6l-0.5,0.1l-1.2-0.1l-0.5,0l-1,0.8l-0.4,0.1l-0.7-0.1l-0.6-0.2l-1-0.7l-1.2-1.7l-0.4-0.3
		l-2.2-0.3l-4.4-1.3l-2.1-0.3h-4.6l-0.6,0.2l-1.1,0.7l-0.6,0.1h-3l-1.3,0.2l-2.1,1l-0.9,0.2h-1.4l-1.1,0.3l-0.9,0.7l-0.5,1.3l-1.3,0
		l-1.4-12.6l-4.6-39.2l-0.8-6.6l0.1-1.5l0.5-1.2l4.9-4.8l1.2-1.9l3.4-10l1.3-2.2l2.2-1.5l-0.9-3l0.1-2.9l3.6-13.2l0.8-1.5l3.3-3.4
		l1.8-3l6.2-17.8l2.2-6.3l1.1-1.8l2.8-2.9l0.7-1.8l-0.2-1.5l-1.2-2.8l-0.4-1.5l0.1-1.5l0.2-1.3l0-1.2l-0.4-1.2l1.8,0.3l1.3,1.9
		l0.5,1.5l0.4,1.8l0.4,3.9l0.4,1.8l0.4,1.1l0.5,0.7l1.1,0.9l0.6,0.6l0.5,0.8l0.9,2.2l0.5,0.7l0.9,0.5l1.5,0.6l6.2,1.5l3.4,1.2
		l4.1,2.6l2.6,2.6l2,3.1l1.3,2.9l1.1,1.6l1.3,1l2.3,0.7l2,0.9l1.3,0.8l0.5,0.7l0.1,0.6l0,0.6l0.4,0.5l1,0.4h4.9l4.7-0.6h1.8l1.9,0.5
		l2.3,1.2l1.9,1.3l1.4,0.8l1.5,0.3l2.3,0.1l1.8,0.2l2.2,0.7l3.9,1.7l6.5,4.4l1.2,0.4l1.7-0.2l1.4-0.5l3.7-1.8l1.6-0.5l1.8,0l2.2,0.7
		l3.1,2.1l2.2,2.2l1.8,2.4l1.8,3.6l1.4,1l2.2,0.5l12.2,0.4L579.4,194.2L579.4,194.2z"/>
	<path id="ERI1561" class="st4" d="M615.4,220.5l-0.7,0.9l-0.5,0.3l-0.8,0.3l-0.7-0.1h-33.1l-0.1-27.7l0.8-0.6l0.5,0l0.9,0.1
		l0.5,0.3l0.8,0.6l0.5,0l0.8-0.1l2.5-0.9l4.2-0.7l1.2,3.1l1.6,3.1l6.1,9.4l3.9,4.3l3.2,2.8l5.8,3.1L615.4,220.5L615.4,220.5z"/>
	<path id="ERI1562" class="st4" d="M662.1,171.6l2.4,0.9l1.9,1.3l0.9,1.4l-0.3,1l-0.7,0.8l-0.1,0.8l0.5,0.5l0.6,0l1.2-0.5l-0.4-0.8
		l0-0.4l0.7-0.2l0.7,0.4l0.2,0.9l-0.4,5.6l0.2,1.1l0.4,1l1.2,2l0.3,0.5l0.6,0l3.9,1.2l1-1.9l0.4-0.4l-0.3-0.4l-1.3-0.4l-0.6-0.8
		l0.5-0.8l1.2-0.4l1.5-0.1l1.3,0.1l1.3,0.4l0.9,0.6l0.2,0.5l0.3,1.2l1.5,0.4l1.4,0.9l0.9,0.2l1,0l0.3,0.2l0.5,2.7l-0.4,1.3l-0.9,0.5
		l-1.4-0.7l-1.1-0.2l-3.2,0.8l-1.4,0.1l-1.4-0.5l-2.3-1.1l-1.5-0.2l-3.3,0.7l-1-0.2l-0.9-1.1l-0.4-0.4l-0.6,1.1l-0.8,0.6l-1.1,0.1
		l-1.6-0.3l-2.7-1.1l-1.3-0.3l-1.5,0.4l-1-1.4l-1.8-5.3l0.8,0l0.4,0.1l0.1,0.3l-0.4,0.4l0.5,0.3l0.4,0.4l0.4,1.1h0.5l0.6-0.2
		l0.9,0.4l0.9,0.5l0.7,0.3l0.9,0l2.8-0.9l-1.2-2.2l-1.6-1.8l-2-1.2l-2.2-0.4l-2.2,0.4l-0.8-0.2l-0.5-1.3l0.1-1.3l0.6-0.8l0.9-0.1
		l2,1.3l0.9,0.1l0.3-0.6l-0.8-1.2l-0.4-1.4l1.3-0.7l1.8-0.1l0.8,0l0.3-0.9l-0.4-1.1l-0.8-1l-0.7-0.4l-2.3,0.2l-0.8-0.4l-0.8-1.2
		l2.4,0.2L662.1,171.6L662.1,171.6z M668,164.5l-1.2,0.3l-1.9-0.6l-1.7-0.9l-2.8-0.3l-0.7-0.7v-1.2l0.5-1.1l1.2-0.4l1.5-0.1l0.6-0.4
		l-0.4-1.3l0-0.7l0.1-0.8l0.5-0.3l1.7,1.3l0.5,0.3l0.7,0.2l1.2,0.5l0.5,0.8l-0.4,0.6l-1.1,0.4l-1,0.9l-0.2,1.1l0.4,0.4l0.6,0.3
		l0.4,0.5l0.7,0.5L668,164.5L668,164.5z M698.5,236l-0.1,0.4l0.1,2.2l1.3,6.6l0.2,2.8l-0.3,2.6l-1,2.6l-5.9,8.5l-3.4,7.4l-4.8,8
		l-0.7,1.3l-5.1-4.8l-2.7-1.6l-2.9-1.2l-6-1.5l-1.2,0l-3.3,1h-0.9l-2.9-0.5l-1.2,0.3l-2.1,1.8l-1.3,0.4l-1.3-0.2l-1-0.5l-3.5-3.1
		l-1.8-1.2l-2-0.7l-2.1,0.1l-0.8,0.1l-23-39.8l-1.4-3.2l-2.1-3.5l-2.7-1.8l-5.8-3.1l-3.2-2.8l-3.9-4.3l-6.1-9.4l-1.6-3.1l-1.2-3.1
		l-2.2-8.4l-5.9-9.9l-1-1.3l-0.9-0.6l-9-1.2l-3.1-0.9l-3.1-1.3l-3.2-2.2l-1.4-1.9l-0.7-2.3l-0.2-5.6l0.2-1.7l0.4-1.3l0.6-1.1l0.3-1
		l0.2-1.3l0-1.6l-0.4-2l-0.8-2.4l-1.9-3.5l-1.7-2.1l-1.6-1.3l-1.5-1.7l-0.7-1.8l-1-3.7l-0.8-1.5l-1.3-1.9l-0.6-1.4l-0.4-1.4l-0.4-1
		l-0.8-0.6l-15.2-2.7l-1.6-0.8l-1.5-1.6l-0.4-1.6l0.2-2.1l0.9-4.5l0-2.2l-0.4-1.4l-0.9-1.2l-1.1-1.1l-1.4-1.9l-0.5-1.4l0.1-1.7
		l0.5-1.4l0.7-3.4l1.2-28.6l-0.5-7.8l-0.1-0.7l1.6-0.6h1.5l0.6,0.7l0,1.2l-0.1,1.4l0.4,1.5l1,0l1.1-0.9l0.7-1.3v-0.7l-0.2-0.9
		l0.3-0.6l0.4,0l2.3-0.8l1.1,0.7l1,1l1.2,0.8l1.6-0.3l1.1-1.1l0.2-1.4l-0.1-1.5l0.4-1.3l1.1-1.1l3.3-1.6l1.3-1l1.8-3l4-10.7l1.8-2.7
		l9.5-8l0.2,0.7l0.6,0.8l0.5,2.2l2.8,4l0.2,0.7l0.1,1.4l0.2,0.7l1.2,1.7l0.2,0.4l0.3,1.2l6.3,9.6l4.6,10.9l4.6,8.1l1.6,5.9l0.8,1.4
		l-0.8,2.7l1.3,2.1l1.8,1.9l0.9,2.1l0.4,2.7l0.5,2.3l2,4.1l0.3,1.3l0.2,2.8l0.4,1.4l1,2l0.4,2.8l0.3,1.2l2.2,5.1l1.4,5.4l-0.9-0.5
		l1.3,3.1l0.4,1.5l0.1,2l-1.3,1.3l1.1,3.2l-0.3,1.8l-0.5-0.4l0.1,1.1l0.7,0.3h0.7l0.4,0.2l-0.1,2.4l0.1,0.6l0.8,1.8l0.1,0.9
		l-0.1,2.7l0.1,0.9l0.2,0.6l0.6,1.1l0.1,0.9l-0.1,0.9l-0.4,1.7v1l2.1,9.1l0.3,3.1l0.2,1l1.6,3.5l2.3,9l1.3,2.4l4,2.4l0.6,1.1
		l0.5,0.4l2.5,1.1l0.7,0.6v0.9l-0.3,0.8l-0.4,0.7l-0.2,0.7l0.2,0.9l0.9,1l0.2,0.5l0.1,1.8l0.4,1.1l1.8,2l-1.1,0.1l-0.8,0.7l-0.3,1
		l0.4,1.1l0.3-0.6l0.6-0.7l0.7-0.3l0.7,0.6l-0.2,1.3l-1.3,0.6L623,191h-0.7l0.1,0.6l1.2,2l0.3,2.3l0.1,0.5l0.9,0.4l1.5,0.1l1.5-0.2
		l0.6-0.6l0.5-0.8l1.2-0.2l1.3,0.3l1,0.5l1.6,2.2l3.5,11.3l0.3,0.2l1.3,0.5l0.3,0.2l0.1,1.2l0.4,1.2l0.6,0.9l0.7,0.7l-1,3.8
		l-0.4,5.9l0.1,0.3l0.6,0.4l0.2,0.2l0.2,1.1l0.6,0.5l0.9,0l0.9-0.5l0.7,1.3l0.8,0.2l1-0.3l1.5-0.2l0.4-0.4l0.4-0.8l0.2-0.9l-0.1-0.6
		l-0.4-0.6l0.3-0.4l0.8-0.5l1.3-2.3l0.1-1.3l-1.3-2.3l-0.7-2.8l-0.6-1h-0.9l-0.5,1.1l-0.4,0.6l-0.6-1.4l-0.2-1.3l0.2-3.6l-0.1-0.8
		l-0.4-1.3l0-0.8l0.1-0.9l0.8-0.4l0.4-0.4l0.4-2.4l0.4-0.7l0.9,0.7h0.4l0-0.5l0.4-1.3h0.4v0.9l0.7-0.6l0.9-1.5l0.6-0.8l1,1.8
		l1.3,1.4l6.3,5.3l1,0.5l1.5,0.3l0.5,0.2l0.7,0.4l0.8,0.6l0.5,0.7l0.2,0.7l-0.1,0.8l-0.4,0.8l-1.2,0.9l-0.6,0.6l-0.4,0.7l-1,2.6
		l0.8-0.1l0.5,0.2l0.4,0.4l0.1,0.7l-0.2,0.2l-0.7,0.3v0.5l0.3,0.3l0.4,0.8l1.5,1.2l0.4,0.6l0.2,0.9l0.9,1.8l0.3,0.9l0,0.8l-0.2,0.9
		l-0.1,0.9l0.3,0.8l0.8-0.3l0.9,0.2l0.8,0.5l0.4,1.3l0.6,0.2l0.2,0.4l0,0.6l-0.4,1l-0.1,0.5l0.6,1.3l1.6,0.8l4.9,1.8l1.1,0.5
		l0.5,0.4l0.4,1.3l1-0.2l1.5-1.3l1.5-0.6l1-1.4l0.9-1.5l0.9-1.2l-0.1,1.1l0.2,0.9l0.6,0.5l1.1-0.2l0.4-0.6l-0.1-0.8l0.1-0.7l1.2-0.3
		l0.9-0.1l0.7,0.5l-0.2,0.7l0.1,0.4l1.3,0.4l0.4,0.8h0.6l0.8-0.5l0.6-0.9l-0.3-0.6l-0.1-0.5l0-1.3l0.4,0.4l0.3,0.8l0.2,0.3l1.8,0.4
		l0.1,0.6l0,1.2l0.4,0.6l0.5,0.3L698.5,236L698.5,236z"/>
	<path id="ERI1563" class="st4" d="M590.9,192.9l-4.2,0.7l-2.5,0.9l-0.8,0.1l-0.5,0l-0.8-0.6l-0.5-0.3l-0.9-0.1l-0.5,0l-0.8,0.6
		l-6.8,0.8l-12.2-0.4l-2.2-0.5l-1.4-1l-1.8-3.6l-1.8-2.4l-2.2-2.2l-3.1-2.1l-2.2-0.7l-1.8,0l-1.6,0.5l-3.7,1.8l-1.4,0.5l-1.7,0.2
		l-1.2-0.4l-6.5-4.4l-3.9-1.7l-2.2-0.7l-1.8-0.2l-2.3-0.1l-1.5-0.3l-1.4-0.8l-1.9-1.3l-2.3-1.2l-1.9-0.5h-1.8l-4.7,0.6H497l-1-0.4
		l-0.4-0.5l0-0.6l-0.1-0.6l-0.5-0.7l-1.3-0.8l-2-0.9l-2.3-0.7l-1.3-1l-1.1-1.6l-1.3-2.9l-2-3.1l-2.6-2.6l-4.1-2.6l-3.4-1.2l-6.2-1.5
		l-1.5-0.6l-0.9-0.5l-0.5-0.7l-0.9-2.2l-0.5-0.8l-0.6-0.6l-1.1-0.9l-0.5-0.7l-0.4-1.1l-0.4-1.8l-0.4-3.9l-0.4-1.8l-0.5-1.5l-1.3-1.9
		l-1.8-0.3l-0.1-0.2l-0.9-1.3l-1-1.1l-0.9-1.3l-0.4-1.6l0-0.9l0.8-2.8l0.2-1.3l-0.1-2.3l0.1-1.2l0.6-1.3l1-0.9l2.2-1.6l0.7-0.9
		l1.7-4.2l0.2-4.2l0.1-0.3l0.6-0.8l0-0.4l-0.5-0.9l0.1-2.8l-0.2-0.9l-0.6-0.9l-0.7-0.7l-0.2-0.7l1.6-2.3l0.3-1.3l-0.3-1.3l-1.3-1.8
		l-0.2-0.6l0.2-0.6l0.4-0.5l1.4-0.2l1,0.5l1,0.7l1.2,0.5l1.7,0.3l0.7,0.2l2.6,1.6l0.7,0.1l3.6-0.6l1,0.2l2-0.1l3.2-2l1.9-0.2
		l6.2,1.8l3.8-4.5l0.5-1.4l0.3-1.6l1.5-2.6l0.4-1.4l0.3-2.9l0-1.3l-0.8-3.2l0.2-0.8l0.7-0.4l8.8-2.7l2.7-0.4l2.7-1.4l2.9-5.3
		l2.3-1.3l1.3,0.4l2,1.9l1.5,0.5l1.6-0.4l1.3-1l2.1-2.7l4.5-3.1l0.1,0.7l0.5,7.8l-1.2,28.6l-0.7,3.4l-0.5,1.4l-0.1,1.7l0.5,1.4
		l1.4,1.9l1.1,1.1l0.9,1.2l0.4,1.4l0,2.2l-0.9,4.5l-0.2,2.1l0.4,1.6l1.5,1.6l1.6,0.8l15.2,2.7l0.8,0.6l0.4,1l0.4,1.4l0.6,1.4
		l1.3,1.9l0.8,1.5l1,3.7l0.7,1.8l1.5,1.7l1.6,1.3l1.7,2.1l1.9,3.5l0.8,2.4l0.4,2l0,1.6l-0.2,1.3l-0.3,1l-0.6,1.1l-0.4,1.3l-0.2,1.7
		l0.2,5.6l0.7,2.3l1.4,1.9l3.2,2.2l3.1,1.3l3.1,0.9l9,1.2l0.9,0.6l1,1.3l5.9,9.9L590.9,192.9L590.9,192.9z"/>
	<path id="ERI1564" class="st4" d="M641.9,266.9l-3,0.5l-1.8-0.2l-3.4-1l-0.8-0.6l-1.3-1.7l-1-0.9l-1.3-0.7l-1.2,0l-0.5,1.4
		l-1.2,1.6l-2.7,1.3l-5.5,1.5l-1.3,0.1l-3.6-0.6l-1.7,0.3l-0.9,0.8l-1.5,2.3l-1.7,0l-1.3-2.6l-2-5.7l-0.9-1.5l-1.2-1.4l-1.3-1.3
		l-1.5-0.9l-0.7-0.3l-1.9-0.4l-2.4-0.3l-0.1-0.3l-0.9,0.9l-0.1,1.2l0.1,1.3l-0.2,1.3l-0.9,1.2l-1.3,0.9l-2.8,1.3l-2.2,2l-1.2,0.9
		l-3,0.3l-4,1.7l-1.3,0.3l-1.2,0.1l-1.2-0.1l-1.2-0.4l-1.3,0l-4.1,2.2L565,272l-5.1,0.6h-3.3l-0.5,0.1l-0.6,0l-0.8-0.6l-0.4-0.6
		l-0.4-1.5l-0.5-0.5l-3.6-2l-1-0.8l-0.8-1l-0.5-1.2l-0.6-2.6l-0.4-0.9l-0.7-0.5l-0.8-0.4l-0.6-0.6l-0.3-0.7l-0.3-1.9l-0.1-0.3
		l0.8-1.9l-0.3-2.5l-2.1-4.6l-0.4-2l-0.1-1.6l0.2-1.2l1.3-2.6l1-2.7l0.6-0.9l1.2-1.1l1.5-0.9l2.5-1l0.9-0.8l1-1.3l1.4-2.5l2.6-2.9
		l1.2-0.8l1-0.4l1-0.2l5.9-0.4l5.8-1.4l2.7-1.2l2.1-0.3l4.5,0.5h33.1l0.7,0.1l0.8-0.3l0.5-0.3l0.7-0.9l2.1,3.5l1.4,3.2L641.9,266.9
		L641.9,266.9z"/>
	<path id="ERI1565" class="st4" d="M683.9,278.4l0.7-1.3l4.8-8l3.4-7.4l5.9-8.5l1-2.6l0.3-2.6l-0.2-2.8l-1.3-6.6l-0.1-2.2l0.1-0.4
		l0.4-0.2l0.6,0l1.3,0.2l0.6,0.3l0.3,0.7l0.3,2.7l0.2,0.5l1.9,0.8l-0.3-1.2l0.5-0.4l1.8,0.1l0.4,0.3l0.2,0.6l-0.3,0.4l-1-0.4
		l-0.4,0.4l3.2,3.3l0.3-0.3l0.3,0.1l0.3,0.6l0.1,0.5l-0.1,1.9l-0.5,1.6l0,0.8l0.6,0.9l1.7,1.2l0.5,0.8l0,1.3l1.3-0.8l0.7,0l0.7,0.3
		v-1.3l1.5,0.7l3.6-0.2l1.9,1.1l2.1,1.5l1.8,0.5l4.5,0.2l7.7,1.8l0.8,0.3l0.8,1.1l1.1,2.5l0.9,1.2l4.9,3.5l1.6,2l1,2.4l0.4,2.5
		l0.5,1.1l1.1,0.7l1.1,0.5l0.5,0.6l0.3,0.5l1.3,1.5l0.9,2.8l1.4,1.7l3.1,2.7l1.8,2l0.6,1l0.4,1.2l0.5,2.2l0.3,0.8l0.6,0.8l0.9,0.7
		l2.2,1.3l1.2,1l1,1.3l2.4,4.6l0.7,2.8l0.5,1l4.3,1.3l0.9,0.1l2.1-0.9l0.9-0.1l0.5,0.3l1.3,2.2l1.1,1.1l0.5,0.3l0.9,0.2l0.8,0
		l1.5-0.4l0.5-0.1l1.2,0.4l2.3,1.6l0.9,0.3l0.8,0.5l0.3,1.3l0.2,1.4l0.3,1l2.7,2.2l0.4,0.9h0.3l1.5,2.1l0.4,0.9l0.9,0.4l0.3,0.8
		l0.4,1.5l0.4,0.8l0.7,0.2l0.8-0.3l0.7-0.4l0.3,0.1l0.2,0.4l1.1,0.8l0.4,0.4l0.3,0.6l0.4,1.6l0.3,0.6l1.6,1.2l0.3,0.1l0.3,0.9h0.5
		l0.4-0.4l-1.3-1.8l-0.2-0.4l-0.5-0.5v-0.5h1.3l0-1.8l-0.9-0.8l-1.1-0.6l-1.4-0.1l-0.5-0.2l0.2-0.4l0.6-0.3l0.9,0l2.3,1.9l2.5,3.3
		l0.9,0.4l1.2,0.8l0.4,1.7v2.8l0.8,2.2l0.6,1l0.7,0.4l0.6,0.8l0.5,1.8l1,7.9l0.9,1.7l0.4,3.3l0.1,0.5l2.1,1.2l1.4,0.4l3,0.3l1.3-0.2
		l0.8-0.6l0.4-0.9l0.4-1.1l0.9,0.2l0.3,0.4v0.6l0.3,0.7l0.9,0.6l0.4,0.4l0.1,0.7l0.5,0.9l3.4,2.8l2.3,3.9l0.9,0.5l1.3,0.2l1.1,0.5
		l0.9,0.7l0.8,0.7l0.5,1.1l0.7,3.8l1.1,2.5l0.3,1.3l0.2,1.9l0.2,1.1l0.5,0.7l0.9,0.3l0.9-0.3l0.9-0.5l0.9-0.4l0.9,1.8l1.3,1.1
		l1.8,0.5l2.4,0.2l-0.3,0.3l-0.6,1.1l0.6,0l0.5-0.1l1.8-1.3h0.2l0.8-0.9l0.6-1l0.3-1.4l0.6-0.4l-0.4-0.7l-0.1-0.6l0.1-0.6l0.4-0.4
		l1.9,1.4l0.9,0.9l0.7,1.4l0.7,0.6l0.9,0.5l0.7,0.5l0.4,0.9l0.1,2.1l0.2,1l1.8,3.2l-0.4,0.5l-14.5,6.3l-0.7,0l-0.9-0.7l-0.6,0
		l-1.1,1l-1.5,3.7l-2.9,2.7l0.2,2l0.6,2.2l-0.4,1.8l-0.8,0.4l-2,0.4l-0.6,0.6l-0.9,1.3l-2.4,0.7l-0.9,1.3l-10.4-9.3l-3.1-1.3
		l-1.8-0.5l-1.2,0.2l-3.4,3.7l-3.2-3.4l-5.4-7.4l-4.3-7.5l-3.2-2.7l-3.7-2.1l-3.8-1.6l-5.2-3.4l-3.5-4.9l-5.2-11.3l-2.1-3.5l-2.2-3
		l-2.6-2.7l-12.1-10l-20.5-13.2l-2-2l-9.9-17.6l-14-16l-4.1-2.9l-4.5-1.7l-6-0.9l-1.9-0.6l-7.1-3.4l-3.9-2L683.9,278.4L683.9,278.4z
		"/>
	<rect id="_x30__00000105394446398889098490000017999557149393048968_" x="583.5" y="234.4" class="st4" width="0" height="0"/>
	<rect id="_x31__00000148619204006859759620000017826638924730635669_" x="546.4" y="152.3" class="st4" width="0" height="0"/>
	<rect id="_x32__00000111152823426748462710000016609397243972316299_" x="493.7" y="211.9" class="st4" width="0" height="0"/>
</g>
<line class="st5" x1="702.1" y1="113.3" x2="593.6" y2="113.3"/>
<line class="st5" x1="930.7" y1="619.9" x2="822.2" y2="619.9"/>
<line class="st5" x1="441.1" y1="301.7" x2="391.5" y2="301.7"/>
<line class="st5" x1="287.4" y1="653.7" x2="237.8" y2="653.7"/>
<text transform="matrix(1 0 0 1 573.419 675.6108)" class="st6 st7">ADDIS ABABA</text>
<polygon points="579.6,624.8 584.5,636 596.7,634.7 589.5,644.6 596.7,654.5 584.5,653.2 579.6,664.4 574.6,653.2 562.4,654.5 
	569.6,644.6 562.4,634.7 574.6,636 "/>
<rect x="707.6" y="85.7" class="st8" width="162.9" height="12.3"/>
<text transform="matrix(1 0 0 1 707.5891 95.2151)" class="st6 st9">ARMED FORCES OF ERITREA</text>
<rect x="153.7" y="275.5" class="st8" width="234.2" height="12.3"/>
<text transform="matrix(1 0 0 1 153.7019 284.9881)" class="st6 st9">TIGRAYAN PEOPLES LIBERATION FRONT</text>
<rect x="707.1" y="104.1" class="st8" width="223.1" height="39.3"/>
<text transform="matrix(1 0 0 1 707.0784 111.5642)"><tspan x="0" y="0" class="st10 st11">Lorem ipsum dolor sit amet, consectetuer adipisc</tspan><tspan x="214.9" y="0" class="st10 st11">-</tspan><tspan x="0" y="13.2" class="st10 st11">ing elit, sed diam nonummy nibh euismod tinci</tspan><tspan x="209.3" y="13.2" class="st10 st11">-</tspan><tspan x="0" y="26.4" class="st10 st11">unt ut laoreet dolore magna aliquam erat </tspan></text>
<rect x="164.8" y="293.2" class="st8" width="223.1" height="39.3"/>
<text transform="matrix(1 0 0 1 169.6223 300.6642)"><tspan x="0" y="0" class="st10 st11">Lorem ipsum dolor sit amet, consectetuer adipisc</tspan><tspan x="214.9" y="0" class="st10 st11">-</tspan><tspan x="5.6" y="13.2" class="st10 st11">ing elit, sed diam nonummy nibh euismod tinci</tspan><tspan x="214.9" y="13.2" class="st10 st11">-</tspan><tspan x="35.4" y="26.4" class="st10 st11">unt ut laoreet dolore magna aliquam erat </tspan></text>
<line class="st12" x1="702.1" y1="139.9" x2="702.1" y2="85.7"/>
<rect x="936.2" y="594.4" class="st8" width="228.4" height="12.3"/>
<text transform="matrix(1 0 0 1 936.1988 603.8938)" class="st6 st9">ETHIOPIAN NATIONAL DEFENSE FORCE</text>
<rect x="935.7" y="612.8" class="st8" width="223.1" height="39.3"/>
<text transform="matrix(1 0 0 1 935.6871 620.2429)"><tspan x="0" y="0" class="st10 st11">Lorem ipsum dolor sit amet, consectetuer adipisc</tspan><tspan x="214.9" y="0" class="st10 st11">-</tspan><tspan x="0" y="13.2" class="st10 st11">ing elit, sed diam nonummy nibh euismod tinci</tspan><tspan x="209.3" y="13.2" class="st10 st11">-</tspan><tspan x="0" y="26.4" class="st10 st11">unt ut laoreet dolore magna aliquam erat </tspan></text>
<line class="st12" x1="930.7" y1="648.6" x2="930.7" y2="594.4"/>
<line class="st12" x1="391.5" y1="328.8" x2="391.5" y2="274.6"/>
<rect y="625.6" class="st8" width="234.2" height="12.3"/>
<text transform="matrix(1 0 0 1 70.0154 635.1389)" class="st6 st9">OROMO LIBERATION FRONT</text>
<rect x="11.1" y="643.4" class="st8" width="223.1" height="39.3"/>
<text transform="matrix(1 0 0 1 15.9201 650.815)"><tspan x="0" y="0" class="st10 st11">Lorem ipsum dolor sit amet, consectetuer adipisc</tspan><tspan x="214.9" y="0" class="st10 st11">-</tspan><tspan x="5.6" y="13.2" class="st10 st11">ing elit, sed diam nonummy nibh euismod tinci</tspan><tspan x="214.9" y="13.2" class="st10 st11">-</tspan><tspan x="35.4" y="26.4" class="st10 st11">unt ut laoreet dolore magna aliquam erat </tspan></text>
<line class="st12" x1="237.8" y1="679" x2="237.8" y2="624.8"/>
</svg>
