<?xml version="1.0" encoding="utf-8"?>
<!-- Generator: Adobe Illustrator 27.0.0, SVG Export Plug-In . SVG Version: 6.00 Build 0)  -->
<svg version="1.1" id="Layer_1" xmlns="http://www.w3.org/2000/svg" xmlns:xlink="http://www.w3.org/1999/xlink" x="0px" y="0px"
	 viewBox="0 0 1039.7 597.6" style="enable-background:new 0 0 1039.7 597.6;" xml:space="preserve">
<style type="text/css">
	.st0{fill:#FDD2C0;}
	.st1{fill:#FFEFE7;}
	.st2{fill:#67000D;}
	.st3{fill:#FFFFFF;}
	.st4{font-family:'Calibri-Bold';}
	.st5{font-size:10px;}
	.st6{font-family:'Calibri';}
	.st7{fill:#FCBFA7;}
	.st8{fill:#FDD6C5;}
	.st9{fill:#FFF2EB;}
	.st10{fill:none;}
	.st11{enable-background:new    ;}
	.st12{font-family:'Calibri-LightItalic';}
	.st13{fill:#FC9778;}
	.st14{fill:#FDC9B3;}
	.st15{fill:#FFF4EF;}
	.st16{fill:#FFF3ED;}
	.st17{fill:#FEE5DA;}
	.st18{fill:#FC9F81;}
	.st19{fill:#FC8464;}
	.st20{fill:#FFF5F0;}
	.st21{fill:#FC8F6F;}
	.st22{font-family:'Calibri-BoldItalic';}
	.st23{font-size:12px;}
</style>
<rect id="path0" x="253.8" y="15.8" class="st0" width="194" height="79"/>
<rect id="path2" x="253.8" y="100.8" class="st1" width="194" height="14"/>
<rect id="path3" x="253.8" y="120.8" class="st2" width="194" height="465.7"/>
<text transform="matrix(1 0 0 1 258.3988 134.833)"><tspan x="0" y="0" class="st3 st4 st5">Amhara Ethnic Militia</tspan><tspan x="0" y="12" class="st3 st6 st5">Agaw-Qemant Ethnic Militia</tspan><tspan x="0" y="24" class="st3 st6 st5">Armed Farmers</tspan></text>
<g>
	<defs>
		<rect id="SVGID_1_" x="253.8" y="120.8" width="194" height="395"/>
	</defs>
	<clipPath id="SVGID_00000038391456090468316770000018223012595203198882_">
		<use xlink:href="#SVGID_1_"  style="overflow:visible;"/>
	</clipPath>
</g>
<rect id="path7" x="453.8" y="15.8" class="st7" width="188" height="96"/>
<rect id="path8" x="453.8" y="117.8" class="st8" width="188" height="69"/>
<rect id="path11" x="453.8" y="192.8" class="st9" width="188" height="41"/>
<rect x="452.9" y="199" class="st10" width="53" height="41"/>
<text transform="matrix(1 0 0 1 456.1762 203.132)" class="st11"><tspan x="0" y="0" class="st4 st5">Samri Youth Militia</tspan><tspan x="0" y="12" class="st12 st5">Affiliated with the TPLF</tspan></text>
<rect id="path14" x="453.8" y="239.8" class="st13" width="188" height="346.7"/>
<g>
	<defs>
		<rect id="SVGID_00000142156795399380024000000011819213132721146043_" x="453.8" y="239.8" width="188" height="200"/>
	</defs>
	<clipPath id="SVGID_00000041975711389965287710000001428271873562363557_">
		<use xlink:href="#SVGID_00000142156795399380024000000011819213132721146043_"  style="overflow:visible;"/>
	</clipPath>
</g>
<rect id="path17" x="647.8" y="15.8" class="st9" width="15" height="119"/>
<text transform="matrix(1 0 0 1 649.2859 25.8332)" class="st6 st5">(1)</text>
<g>
	<defs>
		<rect id="SVGID_00000163061587519767061180000014941479573310615185_" x="647.8" y="15.8" width="15" height="119"/>
	</defs>
	<clipPath id="SVGID_00000176022724018367545600000008716163213106890932_">
		<use xlink:href="#SVGID_00000163061587519767061180000014941479573310615185_"  style="overflow:visible;"/>
	</clipPath>
</g>
<rect id="path18" x="668.8" y="15.8" class="st14" width="299.8" height="119"/>
<rect id="path21" x="973.8" y="15.8" class="st15" width="25" height="119"/>
<rect id="path23" x="1004.8" y="15.8" class="st16" width="26" height="119"/>
<rect id="path25" x="647.8" y="140.8" class="st15" width="12.1" height="143"/>
<rect id="path26" x="664.1" y="140.8" class="st17" width="56.6" height="143"/>
<rect id="path27" x="726.8" y="140.8" class="st18" width="304" height="143"/>
<g>
	<defs>
		<rect id="SVGID_00000124844403336273396330000009945335008508785556_" x="726.8" y="140.8" width="182" height="143"/>
	</defs>
	<clipPath id="SVGID_00000093144912290022320350000004273189146453500861_">
		<use xlink:href="#SVGID_00000124844403336273396330000009945335008508785556_"  style="overflow:visible;"/>
	</clipPath>
</g>
<rect id="path30" x="647.8" y="289.8" class="st19" width="124" height="258"/>
<g>
	<defs>
		<rect id="SVGID_00000160875809331971902160000002730884812807381893_" x="647.8" y="289.8" width="124" height="258"/>
	</defs>
	<clipPath id="SVGID_00000078026074986313088860000004665095752932385716_">
		<use xlink:href="#SVGID_00000160875809331971902160000002730884812807381893_"  style="overflow:visible;"/>
	</clipPath>
</g>
<rect id="path32" x="647.8" y="551.4" class="st1" width="124" height="35.1"/>
<rect id="path33" x="777.8" y="289.8" class="st9" width="58.7" height="55"/>
<rect id="path35" x="841.8" y="289.8" class="st1" width="59" height="55"/>
<g>
	<defs>
		<rect id="SVGID_00000171705275640661706250000017375921243665819039_" x="841.8" y="289.8" width="59" height="55"/>
	</defs>
	<clipPath id="SVGID_00000150096794910555843920000007641592565816106156_">
		<use xlink:href="#SVGID_00000171705275640661706250000017375921243665819039_"  style="overflow:visible;"/>
	</clipPath>
</g>
<rect id="path36" x="906.8" y="289.8" class="st15" width="16" height="55"/>
<rect id="path37" x="928.8" y="289.8" class="st15" width="16" height="55"/>
<rect id="path38" x="950.8" y="289.8" class="st20" width="38.2" height="55"/>
<rect id="path40" x="993.8" y="289.8" class="st9" width="37" height="55"/>
<rect id="path41" x="777.8" y="350.8" class="st21" width="177" height="235.7"/>
<rect id="path43" x="960.8" y="350.8" class="st15" width="32" height="28"/>
<rect id="path44" x="998.8" y="350.8" class="st15" width="32" height="28"/>
<rect id="path45" x="960.8" y="384.8" class="st1" width="45.2" height="64"/>
<rect id="path46" x="1010.8" y="384.8" class="st15" width="20" height="64"/>
<rect id="path48" x="960.8" y="454.8" class="st15" width="70" height="29"/>
<rect id="path49" x="960.8" y="489.8" class="st9" width="25" height="96.7"/>
<rect id="path50" x="991.8" y="489.8" class="st1" width="39" height="96.7"/>
<text transform="matrix(1 0 0 1.05 225.9498 367.4896)" class="st22 st23">KEY</text>
<text transform="matrix(1 0 0 1 144.4439 379.4896)" class="st4 st5">Merehan Clan Militia - 1</text>
<text transform="matrix(1 0 0 1 141.0113 391.4896)" class="st4 st5">Qemant Ethnic Militia - 2</text>
<text transform="matrix(1 0 0 1 125.6646 403.4896)" class="st4 st5">Gambela Liberation Front - 3</text>
<text transform="matrix(1 0 0 1 148.0914 415.4896)" class="st4 st5">Surma Ethnic Militia - 4</text>
<text transform="matrix(1 0 0 1 8.609 427.4896)" class="st4 st5">Gumayde People’s Special Woreda Return Committee - 5</text>
<text transform="matrix(1 0 0 1 144.5416 439.4896)" class="st4 st5">Marehan Clan Militia - 6</text>
<text transform="matrix(1 0 0 1 162.7398 451.4896)" class="st4 st5">Ari Ethnic Militia - 7</text>
<text transform="matrix(1 0 0 1 149.6588 463.4896)" class="st4 st5">Murle Ethnic Militia - 8</text>
<text transform="matrix(1 0 0 1 133.6871 475.4896)" class="st4 st5">Gumuz Liberation Front - 9</text>
<text transform="matrix(1 0 0 1 55.6891 487.4896)" class="st4 st5">Unidentified Communal Militia (Ethiopia) - 10</text>
<text transform="matrix(1 0 0 1 109.5221 499.4896)" class="st4 st5">Dir-Gurgure Sub-Clan Militia - 11</text>
<text transform="matrix(1 0 0 1 82.7008 511.4896)" class="st4 st5">Unidentified Clan Militia (Ethiopia) - 12</text>
<text transform="matrix(1 0 0 1 109.693 523.4896)" class="st4 st5">Agaw-Qemant Ethnic Militia - 13</text>
<text transform="matrix(1 0 0 1 135.5279 535.4896)" class="st4 st5">Degodia Ethnic Militia - 14</text>
<text transform="matrix(1 0 0 1 111.9635 547.4896)" class="st4 st5">Hararghe Communal Militia - 15</text>
<text transform="matrix(1 0 0 1 123.3941 559.4896)" class="st4 st5">Wogdi Communal Militia - 16</text>
<text transform="matrix(1 0 0 1 161.8268 571.4896)" class="st4 st5">Issa Clan Militia - 17</text>
<text transform="matrix(1 0 0 1 144.1656 583.4896)" class="st4 st5">Konso Ethnic Militia - 18</text>
<rect x="457.4" y="243" class="st10" width="163.1" height="87.3"/>
<text transform="matrix(1 0 0 1 457.3717 249.7628)"><tspan x="0" y="0" class="st4 st5">Fano Youth Militia</tspan><tspan x="0" y="12" class="st12 st5">Affiliated with the Amhara</tspan></text>
<text transform="matrix(1 0 0 1 976.7463 25.8333)" class="st6 st5">(2)</text>
<text transform="matrix(1 0 0 1 1008.2331 25.8333)" class="st6 st5">(3)</text>
<rect x="256" y="103.9" class="st10" width="209.4" height="7.9"/>
<text transform="matrix(1 0 0 1 256.0057 110.661)" class="st4 st5">Kebele Communal Militia</text>
<text transform="matrix(1 0 0 1 257.7088 26.8332)" class="st4 st5">Murle Ethnic Militia (South Sudan)</text>
<text transform="matrix(1 0 0 1 457.4691 25.8333)" class="st4 st5">Gumuz Ethnic Militia</text>
<text transform="matrix(1 0 0 1 457.8289 128.0334)" class="st4 st5">Somali Ethnic Militia</text>
<text transform="matrix(1 0 0 1 648.4354 149.5561)" class="st6 st5">(4)</text>
<text transform="matrix(1 0 0 1 781.7057 299.7263)" class="st6 st5">(5)</text>
<text transform="matrix(1 0 0 1 845.1687 299.7263)" class="st6 st5">(6)</text>
<text transform="matrix(1 0 0 1 908.7859 299.7263)" class="st6 st5">(7)</text>
<text transform="matrix(1 0 0 1 931.722 299.7263)" class="st6 st5">(8)</text>
<text transform="matrix(1 0 0 1 954.0499 298.9121)" class="st6 st5">(9)</text>
<text transform="matrix(1 0 0 1 995.2707 298.9121)" class="st6 st5">(10)</text>
<text transform="matrix(1 0 0 1 964.5306 362.252)" class="st6 st5">(11)</text>
<text transform="matrix(1 0 0 1 964.5306 396.252)" class="st6 st5">(13)</text>
<text transform="matrix(1 0 0 1 964.5306 465.3649)" class="st6 st5">(15)</text>
<text transform="matrix(1 0 0 1 964.5306 501.3859)" class="st6 st5">(16)</text>
<text transform="matrix(1 0 0 1 995.9197 501.3859)" class="st6 st5">(17)</text>
<text transform="matrix(1 0 0 1 651.9197 562.9217)" class="st6 st5">(18)</text>
<text transform="matrix(1 0 0 1 1011.2855 395.252)" class="st6 st5">(14)</text>
<text transform="matrix(1 0 0 1 1002.1898 362.252)" class="st6 st5">(12)</text>
<text transform="matrix(1 0 0 1 731.6646 152.3332)"><tspan x="0" y="0" class="st4 st5">Oromo Ethnic Militia</tspan><tspan x="0" y="12" class="st12 st5">Includes pastoralists &amp; some elements of the Oromo Liberation Front</tspan></text>
<text transform="matrix(1 0 0 1 672.9476 27.5135)"><tspan x="0" y="0" class="st4 st5">Afar Ethnic Militia</tspan><tspan x="0" y="12" class="st12 st5">Police Forces of Ethiopia: Afar Special Forces</tspan><tspan x="0" y="24" class="st12 st5">ARDUF: Afar Revolutionary Democratic Unity Front</tspan></text>
<text transform="matrix(1 0 0 1 668.7859 151.4933)"><tspan x="0" y="0" class="st4 st5">GPDM:</tspan><tspan x="0" y="12" class="st4 st5">Gumuz</tspan><tspan x="0" y="24" class="st4 st5">People’s</tspan><tspan x="0" y="36" class="st4 st5">Democratic</tspan><tspan x="0" y="48" class="st4 st5">Movement</tspan></text>
<text transform="matrix(1 0 0 1 651.4874 301.9035)"><tspan x="0" y="0" class="st4 st5">Unidentified Ethnic</tspan><tspan x="0" y="12" class="st4 st5">Militia (Ethiopia)</tspan></text>
<rect x="781.3" y="355.5" class="st10" width="153.2" height="58.7"/>
<text transform="matrix(1 0 0 1 781.316 362.252)" class="st4 st5">OLF: Oromo Liberation Front</text>
</svg>
